<svg xmlns="http://www.w3.org/2000/svg" xmlns:xlink="http://www.w3.org/1999/xlink" width="154.729" height="47.113" viewBox="0 0 154.729 47.113">
  <defs>
    <clipPath id="clip-path">
      <rect id="Rectangle_734" data-name="Rectangle 734" width="154.729" height="47.113" fill="none"/>
    </clipPath>
  </defs>
  <g id="Group_27011" data-name="Group 27011" transform="translate(0 0)">
    <g id="Group_20267" data-name="Group 20267" transform="translate(0 0)" clip-path="url(#clip-path)">
      <path id="Path_20007" data-name="Path 20007" d="M28,32.042,52.778,4.1A12.171,12.171,0,0,1,61.885,0h23.8l21.184,22.026L99.4,30.442,77.808,7.9H74.831A12.17,12.17,0,0,0,65.724,12L47.953,32.042Z" transform="translate(-14.7 0)" fill="#d9000d"/>
      <path id="Path_20008" data-name="Path 20008" d="M123.865,56.612l-9.44-9.815h-7.8a6.085,6.085,0,0,0-4.554,2.048l-6.887,7.767Z" transform="translate(-49.974 -24.57)" fill="#d9000d"/>
      <path id="Path_20009" data-name="Path 20009" d="M212.827,32.042l2.818-3.177a12.168,12.168,0,0,1,9.107-4.1h15.225a12.385,12.385,0,0,0,0-24.769H195.95a12.171,12.171,0,0,0-9.107,4.1l-.891,1,9.809,10.2,2.926-3.3a12.171,12.171,0,0,1,9.107-4.1h20.549a4.48,4.48,0,1,1,0,8.96H211.805a12.171,12.171,0,0,0-9.107,4.1l-9.826,11.081Z" transform="translate(-97.631 0)" fill="#d9000d"/>
      <path id="Path_20010" data-name="Path 20010" d="M42.71,79.414l8.652,0a1.109,1.109,0,0,1,1.05,1.525q-1.047,3.161-2.122,6.316a2.3,2.3,0,0,1-2.1,1.548q-4.332.011-8.662,0a1.112,1.112,0,0,1-1.044-1.529q1.049-3.157,2.123-6.31a2.3,2.3,0,0,1,2.1-1.546m.448,2.334q-.81,2.437-1.617,4.872,2.933,0,5.867,0a.383.383,0,0,0,.351-.26q.81-2.437,1.622-4.873H43.509a.383.383,0,0,0-.351.26M23.836,83.776c.685-2.056,1.424-4.278,1.424-4.278h2.791l-2.593,7.746a2.294,2.294,0,0,1-2.11,1.556l-7.61-.011a1.109,1.109,0,0,1-1.046-1.528L17.279,79.5h2.77l-2.364,7.135s3.576,0,4.933,0a.378.378,0,0,0,.349-.258c.218-.646.537-1.6.869-2.6m15.437-2.225L39.95,79.5H29.231l-.694,2.066,3.946,0L30.1,88.721h2.844l2.382-7.17Zm61.23,0,.676-2.053H90.461l-.694,2.066,3.947,0-2.386,7.154h2.844l2.382-7.17Zm25.08-.044.657-2h-10l-3.074,9.238h10.091l.686-2.085h-7.276l.575-1.716h4.742l.637-1.919h-4.737l.495-1.517ZM10.193,88.735H13.15L11.135,79.5H8.168L0,88.74H3.242L4.562,87.2H8.591l-.367-1.92H6.15L8.925,82.1Zm61.854,0H75L72.99,79.5H70.022L61.854,88.74H65.1L66.417,87.2h4.028l-.366-1.92H68l2.774-3.18ZM63.53,79.5H54.675l-3.07,9.237h2.832l2.4-7.2h4.887l-.669,1.957a.382.382,0,0,1-.35.258l-3.342,0-.691,2.063L61.5,85.8a2.293,2.293,0,0,0,2.1-1.584l1.012-3.291A1.115,1.115,0,0,0,63.53,79.5m24.449,0c-2.5-.007-8.853,0-8.853,0l-3.07,9.237h2.831l2.4-7.2h4.887l-.669,1.957a.38.38,0,0,1-.349.258l-3.66,0,2.56,4.984h3.122l-1.619-2.928.385,0a2.294,2.294,0,0,0,2.1-1.584l.029-.092s.857-2.674.982-3.2A1.115,1.115,0,0,0,87.979,79.5m48.82,0c-2.5-.007-8.854,0-8.854,0l-3.07,9.237h2.832l2.4-7.2H135l-.67,1.957a.381.381,0,0,1-.349.258l-3.66,0,2.56,4.984H136l-1.618-2.928.385,0a2.3,2.3,0,0,0,2.1-1.584l.029-.092s.856-2.674.981-3.2A1.115,1.115,0,0,0,136.8,79.5m-25.361,0-1.7,5.232-.256.786-.18-.229s-2.991-3.8-4.544-5.789h-2.3L99.39,88.735H102.2c.182-.561,1.525-4.716,1.869-5.781l.08-.247,4.737,6.029h2.292L114.25,79.5Z" transform="translate(0 -41.694)" fill="#161615"/>
    </g>
  </g>
</svg>
