<?xml version="1.0" encoding="UTF-8"?>
<svg version="1.1" xmlns="http://www.w3.org/2000/svg" width="1754" height="638">
<path d="M0 0 C578.82 0 1157.64 0 1754 0 C1754 210.54 1754 421.08 1754 638 C1175.18 638 596.36 638 0 638 C0 427.46 0 216.92 0 0 Z " fill="#2C3B4C" transform="translate(0,0)"/>
<path d="M0 0 C578.82 0 1157.64 0 1754 0 C1754 210.54 1754 421.08 1754 638 C1175.18 638 596.36 638 0 638 C0 427.46 0 216.92 0 0 Z M614 24 C614 218.7 614 413.4 614 614 C964.79 614 1315.58 614 1677 614 C1677 419.3 1677 224.6 1677 24 C1326.21 24 975.42 24 614 24 Z " fill="#CE1F36" transform="translate(0,0)"/>
<path d="M0 0 C578.82 0 1157.64 0 1754 0 C1754 210.54 1754 421.08 1754 638 C1175.18 638 596.36 638 0 638 C0 427.46 0 216.92 0 0 Z M24 23 C24 218.03 24 413.06 24 614 C569.49 614 1114.98 614 1677 614 C1677 418.97 1677 223.94 1677 23 C1131.51 23 586.02 23 24 23 Z " fill="#FDFCFC" transform="translate(0,0)"/>
<path d="M0 0 C1.62692259 0.00028245 3.25384531 0.000123 4.88076782 -0.0004425 C9.27473413 -0.00072821 13.66867287 0.00513178 18.0626328 0.01213145 C22.66304587 0.01840282 27.26345965 0.01897178 31.86387634 0.02015686 C40.56528584 0.02325905 49.26668271 0.03145739 57.96808666 0.04150635 C67.87862503 0.0527021 77.78916402 0.05818665 87.69970715 0.06320179 C108.07707418 0.07364097 128.45442985 0.0912188 148.83178711 0.11352539 C148.25710444 4.29869277 147.62326471 8.2619377 146.37866211 12.30102539 C146.08862305 13.24848633 145.79858398 14.19594727 145.49975586 15.17211914 C145.19682617 16.1427832 144.89389648 17.11344727 144.58178711 18.11352539 C144.29432617 19.05325195 144.00686523 19.99297852 143.71069336 20.96118164 C141.95180516 26.66796736 140.10243741 32.34137319 138.20776367 38.00415039 C137.97824005 38.69138184 137.74871643 39.37861328 137.51223755 40.08666992 C136.95249865 41.76242583 136.3922012 43.43799516 135.83178711 45.11352539 C134.71638109 45.11710792 134.71638109 45.11710792 133.57844162 45.12076283 C115.49289303 45.17987421 97.40748137 45.25539942 79.3220787 45.3492403 C70.57614089 45.39422423 61.83024403 45.43363286 53.08422852 45.45996094 C45.46204825 45.48292004 37.83999732 45.51629455 30.21791959 45.56222695 C26.18129885 45.58618748 22.14480641 45.60489765 18.10811615 45.6111393 C14.30940318 45.61717745 10.51101864 45.6371308 6.71242714 45.6678009 C5.31765585 45.6766016 3.92284168 45.68029951 2.52804375 45.67853355 C0.62451347 45.6768843 -1.2790027 45.69532469 -3.18243408 45.71479797 C-4.24802677 45.71940694 -5.31361946 45.7240159 -6.41150284 45.72876453 C-9.57000433 46.16960442 -10.95948425 46.82763642 -13.16821289 49.11352539 C-13.55427422 52.14229219 -13.68420219 54.8068504 -13.63818359 57.8359375 C-13.64037399 58.7272789 -13.64256439 59.6186203 -13.64482117 60.53697205 C-13.64713598 63.48864632 -13.62085345 66.4393275 -13.59399414 69.39086914 C-13.58907148 71.43965844 -13.58577179 73.48845223 -13.58403015 75.5372467 C-13.57638318 79.8338962 -13.55580289 84.13021342 -13.52490234 88.42675781 C-13.48535209 93.93603711 -13.46729803 99.44509992 -13.45759296 104.95450497 C-13.44761799 110.20415574 -13.42772807 115.45375361 -13.40649414 120.70336914 C-13.40309839 121.70686842 -13.39970264 122.7103677 -13.39620399 123.74427605 C-13.38462712 126.58348753 -13.36610477 129.42256234 -13.34521484 132.26171875 C-13.34252594 133.10289246 -13.33983704 133.94406616 -13.33706665 134.81072998 C-13.30327575 138.4719181 -13.06196607 141.53851268 -12.16821289 145.11352539 C34.69178711 145.44352539 81.55178711 145.77352539 129.83178711 146.11352539 C130.49178711 142.81352539 131.15178711 139.51352539 131.83178711 136.11352539 C132.34983978 134.20141795 132.90158835 132.2977373 133.50366211 130.41040039 C133.83108398 129.37141602 134.15850586 128.33243164 134.49584961 127.26196289 C134.85420898 126.14047852 135.21256836 125.01899414 135.58178711 123.86352539 C136.39050473 121.29625403 137.19794006 118.72861064 138.00366211 116.16040039 C138.22252075 115.46418579 138.44137939 114.76797119 138.66687012 114.05065918 C141.47715589 105.09104076 144.19366952 96.1028261 146.91952515 87.11724854 C147.83109893 84.1157913 148.74560387 81.11524321 149.66113281 78.11499023 C153.30386304 66.18332625 153.30386304 66.18332625 156.86776733 54.22796631 C157.46477268 52.20263519 158.06796683 50.17926492 158.67358398 48.15649414 C159.37104745 45.82166992 160.05721421 43.48341937 160.72827148 41.14086914 C165.22516021 26.22572269 173.4695881 14.07295042 187.22631836 6.39477539 C199.11647069 0.54774396 210.19475399 -0.03810629 223.24609375 0 C224.59885117 0.00030689 225.95160876 0.00017189 227.30436611 -0.00036526 C230.90267998 -0.00058954 234.5009601 0.00517498 238.09926605 0.01224518 C241.4850016 0.01797156 244.87072925 0.01821 248.25646973 0.0189209 C258.1357466 0.02415274 268.01501729 0.038114 277.89428711 0.05102539 C299.98366211 0.07165039 322.07303711 0.09227539 344.83178711 0.11352539 C344.83178711 63.14352539 344.83178711 126.17352539 344.83178711 191.11352539 C329.98178711 191.11352539 315.13178711 191.11352539 299.83178711 191.11352539 C299.83178711 178.24352539 299.83178711 165.37352539 299.83178711 152.11352539 C258.25178711 152.11352539 216.67178711 152.11352539 173.83178711 152.11352539 C173.50178711 154.42352539 173.17178711 156.73352539 172.83178711 159.11352539 C172.13547396 161.42207128 171.38218698 163.71397133 170.58178711 165.98852539 C168.62135208 171.66127357 166.83173953 177.35747215 165.15991211 183.12133789 C164.93384277 183.89550049 164.70777344 184.66966309 164.47485352 185.46728516 C163.92562093 187.3489153 163.37848013 189.23115582 162.83178711 191.11352539 C139.06572547 191.20711637 115.2996916 191.27757687 91.53348255 191.32077408 C80.49751931 191.34136763 69.46167082 191.36942678 58.42578125 191.4152832 C48.80285378 191.45524929 39.18000946 191.4809815 29.55700129 191.48987937 C24.46533866 191.49507759 19.37391381 191.50722811 14.28232765 191.53644562 C9.48148149 191.5637693 4.68096911 191.57193638 -0.11994743 191.56595612 C-1.87380543 191.56704881 -3.62767559 191.57490108 -5.38146591 191.59034729 C-21.31092681 191.72365985 -34.50668277 189.4234227 -46.42211914 177.94165039 C-56.08442618 167.62095411 -58.46602542 157.25205939 -58.47460938 143.39599609 C-58.48293289 142.24528122 -58.49125641 141.09456635 -58.49983215 139.90898132 C-58.52385239 136.11905494 -58.53269508 132.32930099 -58.53930664 128.53930664 C-58.54600938 126.56139645 -58.55271463 124.58348624 -58.55974156 122.60557717 C-58.58115986 116.38857436 -58.5905389 110.17162598 -58.59375 103.95458984 C-58.59737922 97.57314133 -58.62724202 91.1921755 -58.66915458 84.81087428 C-58.70402565 79.30565573 -58.71930134 73.80059583 -58.71999604 68.29526776 C-58.72078333 65.01895014 -58.73169226 61.74323151 -58.7579937 58.46700478 C-58.985145 27.72300978 -58.985145 27.72300978 -47.39868164 14.33227539 C-33.64074936 0.64662646 -18.36522715 -0.0448012 0 0 Z " fill="#FDFDFD" transform="translate(777.168212890625,340.886474609375)"/>
<path d="M0 0 C1.11632812 0.32484375 2.23265625 0.6496875 3.3828125 0.984375 C19.88785939 6.10058911 35.09894375 13.74739373 49 24 C49.92683594 24.68320313 50.85367188 25.36640625 51.80859375 26.0703125 C63.44288899 35.16338724 74.02695583 45.92372504 82.9375 57.6875 C83.43950928 58.3462915 83.94151855 59.00508301 84.45874023 59.68383789 C87.00995685 63.17580717 88.30678755 65.65849618 89 70 C85.14648014 72.37605028 81.29225156 74.75094857 77.4375 77.125 C76.8536554 77.48458801 76.26981079 77.84417603 75.66827393 78.21466064 C66.4750232 83.87530657 57.26672876 89.51047595 48.02783203 95.09643555 C43.69870076 97.71974736 39.39648509 100.36982035 35.15234375 103.12890625 C34.41322754 103.60602051 33.67411133 104.08313477 32.91259766 104.57470703 C31.55746243 105.45407983 30.20889323 106.34369506 28.86865234 107.24560547 C24.61606692 109.99891918 24.61606692 109.99891918 21.7734375 110.00390625 C19.44246331 108.68439003 18.35279614 107.1906434 16.8125 105 C5.38817553 89.71905644 -10.87060703 79.49470181 -29.578125 75.44140625 C-51.28522858 72.64128901 -72.27280191 76.05244326 -89.9375 89.5625 C-91.29715977 90.70180975 -92.6518195 91.84712935 -94 93 C-94.58910156 93.43441406 -95.17820312 93.86882812 -95.78515625 94.31640625 C-108.68724727 104.16196546 -117.86665546 123.33221259 -120 139 C-121.83207274 160.52488898 -117.66319952 180.41912274 -104.5625 197.9375 C-103.39921736 199.31252622 -102.21115663 200.66694966 -101 202 C-100.34644531 202.74507812 -99.69289063 203.49015625 -99.01953125 204.2578125 C-86.60313052 217.60148541 -67.92191457 226.34519095 -49.64453125 227.3203125 C-26.80376173 227.90096648 -7.20990854 221.07456408 9.63671875 205.41015625 C14.27756856 200.67725652 18.32619003 195.51071496 22 190 C25.80560234 190.58066603 28.526577 191.66421734 31.82421875 193.6328125 C32.75758057 194.18428955 33.69094238 194.7357666 34.65258789 195.30395508 C35.65410889 195.9048999 36.65562988 196.50584473 37.6875 197.125 C39.84589415 198.40312091 42.00476535 199.68043649 44.1640625 200.95703125 C45.28458008 201.6217041 46.40509766 202.28637695 47.55957031 202.97119141 C53.20067829 206.2977318 58.88311289 209.55190366 64.5625 212.8125 C73.76904423 218.11009757 82.92762372 223.47573127 92 229 C85.68170944 241.57308071 76.62865357 251.89639043 67 262 C66.00033203 263.07894531 66.00033203 263.07894531 64.98046875 264.1796875 C44.44067156 285.71404329 15.69287642 298.88755683 -13 305 C-14.46179688 305.32484375 -14.46179688 305.32484375 -15.953125 305.65625 C-55.23285945 314.05569007 -96.37546026 303.87124969 -130 283 C-138.20602709 277.64982496 -145.47874805 271.14166413 -152.54296875 264.38964844 C-153.95532996 263.0426042 -155.3836914 261.71239828 -156.8125 260.3828125 C-185.06407731 233.33513764 -199.87576079 194.25882098 -201.23828125 155.6171875 C-202.01199439 115.31408473 -188.74906261 75.89249355 -161.01953125 46.171875 C-159.24915862 44.26795395 -157.58614232 42.32108849 -155.9375 40.3125 C-135.00324496 15.92692183 -101.9054746 1.81066502 -71 -4 C-70.03707031 -4.20625 -69.07414063 -4.4125 -68.08203125 -4.625 C-46.18042142 -8.79122433 -21.25631411 -6.47699322 0 0 Z " fill="#FEFEFE" transform="translate(363,168)"/>
<path d="M0 0 C25.8225 -0.04125 51.645 -0.0825 78.25 -0.125 C86.38946289 -0.14320801 94.52892578 -0.16141602 102.91503906 -0.18017578 C112.89013672 -0.18920898 112.89013672 -0.18920898 117.5668335 -0.19088745 C120.81800085 -0.19274316 124.06910223 -0.20020783 127.32025146 -0.21115112 C131.47915807 -0.22496248 135.63797 -0.22896518 139.79689741 -0.22614455 C141.31580242 -0.22673357 142.83471105 -0.23064394 144.35359621 -0.23843026 C161.35121656 -0.32145317 176.11661009 1.4930752 188.9609375 13.66015625 C196.50538587 22.31748302 200.29600186 31.77441493 200.30639648 43.22338867 C200.31472 44.0146817 200.32304352 44.80597473 200.33161926 45.62124634 C200.35558325 48.22020489 200.36447567 50.81891165 200.37109375 53.41796875 C200.38007212 55.24009775 200.38919416 57.06222604 200.39845276 58.88435364 C200.41490962 62.69969466 200.42263654 66.5149483 200.42553711 70.33032227 C200.43091002 75.19108502 200.46855909 80.05101248 200.51428127 84.91154003 C200.54420159 88.67536833 200.55126394 92.43899936 200.55226326 96.20293617 C200.55643777 97.99330778 200.56875918 99.7836815 200.58978081 101.57393456 C200.76121396 117.43902687 197.7281717 129.03807223 186.30322266 140.73754883 C184.69932315 142.98445609 184.69932315 142.98445609 185.40625 145.84643555 C185.94765625 147.47512573 185.94765625 147.47512573 186.5 149.13671875 C186.8906665 150.34674561 187.28133301 151.55677246 187.68383789 152.8034668 C188.12237101 154.09820808 188.56109507 155.39288471 189 156.6875 C189.42975003 158.00167612 189.85740012 159.31654079 190.28295898 160.63208008 C191.12505626 163.23118822 191.97505736 165.82747461 192.83154297 168.421875 C194.32259313 172.98786564 195.71665742 177.57695391 197.0625 182.1875 C197.36704102 183.20880005 197.36704102 183.20880005 197.67773438 184.25073242 C199 188.75129333 199 188.75129333 199 191 C183.49 191 167.98 191 152 191 C141 156.42857143 141 156.42857143 141 154 C137.01883301 152.67294434 133.1831785 152.82220703 129.03051758 152.79467773 C128.11324387 152.78477814 127.19597015 152.77487854 126.25090027 152.76467896 C123.21547029 152.7330622 120.18002465 152.70830577 117.14453125 152.68359375 C115.04131155 152.66302438 112.93809598 152.64202791 110.83488464 152.62062073 C105.29634956 152.56539833 99.75777716 152.51598975 94.21917725 152.46777344 C88.56861038 152.41755967 82.91809777 152.36187295 77.26757812 152.30664062 C66.17843003 152.19905696 55.08923589 152.09811808 44 152 C44 164.87 44 177.74 44 191 C29.48 191 14.96 191 0 191 C0 127.97 0 64.94 0 0 Z " fill="#FDFDFE" transform="translate(1149,341)"/>
<path d="M0 0 C24.3375 -0.0825 48.675 -0.165 73.75 -0.25 C81.41959961 -0.28641602 89.08919922 -0.32283203 96.99121094 -0.36035156 C106.39501953 -0.37841797 106.39501953 -0.37841797 110.80474854 -0.3817749 C113.86850701 -0.38548441 116.93198504 -0.40040519 119.9956665 -0.42230225 C123.9160465 -0.44994678 127.83602468 -0.45792674 131.75649309 -0.4522891 C133.18749641 -0.45346617 134.61851526 -0.46127467 136.04943419 -0.47686052 C150.2604462 -0.624331 161.26300305 2.46731076 172 12 C181.12014871 21.41323478 185.09120184 32.32696796 185.16113281 45.28369141 C185.16609772 45.98705627 185.17106262 46.69042114 185.17617798 47.4151001 C185.19070404 49.72726445 185.19758695 52.03936012 185.203125 54.3515625 C185.20736607 55.54545656 185.20736607 55.54545656 185.21169281 56.7634697 C185.22664976 60.97887245 185.23590021 65.19424132 185.24023438 69.40966797 C185.24570166 73.73328116 185.26970269 78.0565767 185.29820633 82.38009071 C185.31696519 85.73128115 185.32204538 89.08239724 185.32357025 92.43363571 C185.32656951 94.02581893 185.33450409 95.6180017 185.34775543 97.2101326 C185.45000299 110.44369085 184.9145494 124.95856404 175.05078125 134.98046875 C174.39464844 135.62628906 173.73851562 136.27210938 173.0625 136.9375 C170.64160917 139.56944035 170.64160917 139.56944035 169.94067383 142.93823242 C172.27132605 152.72035997 175.38939554 162.28029257 178.41015625 171.86669922 C179.16607977 174.27169458 179.91528247 176.67871034 180.6640625 179.0859375 C180.89839996 179.82137787 181.13273743 180.55681824 181.37417603 181.31454468 C182.43863849 184.74121419 183 187.37284228 183 191 C167.82 191 152.64 191 137 191 C133.66423494 181.65985783 130.64387757 172.58682304 128.15234375 163.04492188 C127.79462891 161.73297852 127.79462891 161.73297852 127.4296875 160.39453125 C127.22585449 159.61956299 127.02202148 158.84459473 126.81201172 158.04614258 C125.59614616 154.98235147 123.91713512 153.45856756 121 152 C118.59026385 151.87802512 116.20745118 151.81440406 113.79638672 151.79467773 C113.0548233 151.78477814 112.31325989 151.77487854 111.54922485 151.76467896 C109.09274512 151.73303637 106.63624603 151.70829569 104.1796875 151.68359375 C102.478602 151.6630266 100.77752164 151.64203019 99.07644653 151.62062073 C94.59499264 151.56537536 90.11349244 151.51597697 85.63195801 151.46777344 C80.25712508 151.4087538 74.88237695 151.34251228 69.50761414 151.27747345 C61.33846113 151.17943291 53.16925422 151.09059815 45 151 C45 163.87 45 176.74 45 190 C30.15 190 15.3 190 0 190 C0 127.3 0 64.6 0 0 Z " fill="#FDFDFD" transform="translate(1388,106)"/>
<path d="M0 0 C1.4986979 0.00028243 2.99739593 0.00012305 4.49609375 -0.0004425 C8.54508991 -0.0007283 12.59405618 0.0051332 16.64304543 0.01213145 C20.8817797 0.01840127 25.12051473 0.01897166 29.35925293 0.02015686 C37.37716808 0.0232595 45.39506952 0.03145846 53.41297865 0.04150635 C62.54479023 0.05270068 71.67660249 0.0581863 80.80841923 0.06320179 C99.58517787 0.07364199 118.36192377 0.09122071 137.13867188 0.11352539 C136.59580594 4.03936556 136.06635351 7.81720799 134.90429688 11.60961914 C134.5411438 12.80772217 134.5411438 12.80772217 134.1706543 14.0300293 C133.9126001 14.86195801 133.6545459 15.69388672 133.38867188 16.55102539 C132.99095581 17.85305908 132.99095581 17.85305908 132.58520508 19.18139648 C131.77512844 21.82714695 130.95746105 24.47046003 130.13867188 27.11352539 C129.64765961 28.71114266 129.15676787 30.30879698 128.66601562 31.90649414 C128.21998942 33.3506864 127.77340633 34.79470684 127.32617188 36.23852539 C127.11959961 36.90682373 126.91302734 37.57512207 126.70019531 38.26367188 C125.96073227 40.62777873 125.24848397 42.8939012 124.13867188 45.11352539 C123.11465035 45.11710792 123.11465035 45.11710792 122.06994152 45.12076283 C105.47017506 45.17986063 88.87057316 45.25537695 72.27096844 45.3492403 C64.24356586 45.39423441 56.21620801 45.43364063 48.1887207 45.45996094 C41.19316961 45.48291186 34.19775964 45.51627707 27.2023204 45.56222695 C23.49716544 45.58619865 19.79215057 45.60490143 16.08691978 45.6111393 C11.9538207 45.6182924 7.8212102 45.64869256 3.68823242 45.68115234 C2.45537003 45.67971725 1.22250763 45.67828217 -0.04771423 45.67680359 C-1.17092072 45.68934174 -2.2941272 45.70187988 -3.45137024 45.71479797 C-4.4293926 45.71940694 -5.40741495 45.7240159 -6.41507435 45.72876453 C-8.89222227 45.93141515 -8.89222227 45.93141515 -10.67454815 47.4079771 C-12.70730433 50.32929689 -12.29121114 53.68638592 -12.23632812 57.11352539 C-12.24792969 57.83797852 -12.25953125 58.56243164 -12.27148438 59.30883789 C-12.26785024 63.44333661 -12.26785024 63.44333661 -10.46289062 67.05102539 C-7.67470325 68.9007497 -5.67001648 69.31993532 -2.36303711 69.60668945 C-1.41843628 69.69077057 -0.47383545 69.77485168 0.49938965 69.86148071 C1.53664185 69.94981171 2.57389404 70.0381427 3.64257812 70.12915039 C5.89070655 70.32787894 8.1388348 70.5266095 10.38696289 70.7253418 C12.17543137 70.88114716 12.17543137 70.88114716 14.00003052 71.0401001 C20.25562666 71.58674715 26.50964748 72.15078313 32.76367188 72.71508789 C34.04218521 72.83036835 35.32069855 72.9456488 36.63795471 73.06442261 C48.44974051 74.13371895 60.25672617 75.24683279 72.05807495 76.42590332 C74.13064053 76.63204706 76.203494 76.83531929 78.27664185 77.03552246 C110.19951158 80.12557741 110.19951158 80.12557741 121.13867188 88.11352539 C122.09 88.77481445 122.09 88.77481445 123.06054688 89.44946289 C130.96113214 95.49725604 135.68551558 104.62924468 138.13867188 114.11352539 C138.53487152 117.26388688 138.58372559 120.36662676 138.57226562 123.53930664 C138.57750748 124.40814987 138.58274933 125.2769931 138.58815002 126.17216492 C138.59453046 127.99822936 138.59328527 129.82433513 138.5847168 131.65039062 C138.57622414 134.40904848 138.60499543 137.16561901 138.63671875 139.92407227 C138.69928563 155.36615378 136.23212472 167.6191588 125.18945312 179.14868164 C113.76271005 189.72234763 100.64447221 191.57030766 85.59130859 191.45410156 C84.04305539 191.45325386 82.49480097 191.45373321 80.94654846 191.45542908 C76.77154646 191.45628489 72.59680645 191.43872673 68.42186499 191.4177072 C64.04835709 191.3988709 59.67484226 191.39718451 55.30130005 191.39363098 C47.0319472 191.38433085 38.76271425 191.35974477 30.49341404 191.32958251 C21.07378943 191.29597501 11.6541589 191.27953657 2.2344892 191.26449621 C-17.13085105 191.23319326 -36.49607993 191.18047256 -55.86132812 191.11352539 C-57.54551338 187.22658938 -59.17605206 183.4531941 -60.29101562 179.36352539 C-60.52675293 178.51443604 -60.76249023 177.66534668 -61.00537109 176.79052734 C-61.24658691 175.9071167 -61.48780273 175.02370605 -61.73632812 174.11352539 C-63.92002924 166.26804528 -66.30532098 158.54354594 -68.97851562 150.85180664 C-69.86132812 148.11352539 -69.86132812 148.11352539 -69.86132812 146.11352539 C-69.03949634 146.11205883 -68.21766455 146.11059227 -67.37092876 146.10908127 C-47.39136178 146.07206008 -27.41196507 146.01310788 -7.43253613 145.92962265 C2.22930499 145.88978121 11.89106406 145.85741472 21.55297852 145.8425293 C29.9724574 145.82953916 38.39175613 145.80264235 46.81113356 145.75891232 C51.2708537 145.73623787 55.73035115 145.72061827 60.19013405 145.72164154 C64.38533565 145.72238464 68.58004387 145.70457588 72.77511787 145.67235756 C74.31705222 145.66381842 75.85904166 145.6621357 77.40098953 145.6677227 C79.50247205 145.67432452 81.60236706 145.6565381 83.70368958 145.63250732 C84.88081922 145.62882015 86.05794886 145.62513298 87.27074909 145.62133408 C90.22314918 145.37710585 90.22314918 145.37710585 92.01375866 143.27444839 C93.55751641 140.30893817 93.5723536 137.94306235 93.57617188 134.61352539 C93.59550781 133.48946289 93.61484375 132.36540039 93.63476562 131.20727539 C93.01221766 127.32492903 92.27897881 126.45133311 89.13867188 124.11352539 C86.23097313 123.37136113 83.32243976 123.20153085 80.33398438 123.01196289 C78.51782807 122.86412535 76.70174995 122.71532497 74.88574219 122.56567383 C73.9396106 122.49328491 72.993479 122.420896 72.01867676 122.34631348 C67.31853127 121.96640514 62.63244252 121.46087473 57.94335938 120.96508789 C55.99110843 120.76390016 54.03879597 120.56330852 52.08642578 120.36328125 C49.00533496 120.04659184 45.92431323 119.72927745 42.84344482 119.41043091 C31.23441288 118.20960636 19.62558927 117.04699255 7.99804688 116.03930664 C6.08283109 115.87003094 4.16762896 115.70060064 2.25244141 115.53100586 C-1.31316903 115.21566271 -4.87966853 114.91932767 -8.44775391 114.63354492 C-24.60906125 113.25692414 -37.4666603 109.05757561 -48.35351562 96.37524414 C-56.99350015 85.65048723 -58.04820324 74.46887361 -58.04663086 61.13037109 C-58.04879654 59.08091798 -58.06692769 57.03202271 -58.0859375 54.98266602 C-58.16130707 38.0124641 -55.98845985 24.81781898 -44.06054688 12.11743164 C-31.30878296 0.4981512 -16.37201194 -0.04332128 0 0 Z " fill="#FDFDFD" transform="translate(1432.861328125,340.886474609375)"/>
<path d="M0 0 C1.22830032 -0.00137466 2.45660065 -0.00274933 3.72212219 -0.00416565 C5.0698855 -0.00062725 6.41764856 0.00300755 7.76541138 0.00672913 C9.19484963 0.00701142 10.62428803 0.00685244 12.0537262 0.00628662 C15.92309498 0.00600028 19.79243262 0.01187059 23.66179419 0.01886058 C27.70968816 0.02512133 31.75758289 0.02570007 35.80548096 0.02688599 C43.46576173 0.02999128 51.1260282 0.03819386 58.78630269 0.04823548 C67.50936941 0.05942152 76.23243683 0.06491334 84.95550895 0.06993091 C102.89491812 0.08037714 120.83431399 0.09796105 138.77371216 0.12025452 C138.46489826 1.53647857 138.15443237 2.95234245 137.84329224 4.36805725 C137.67058304 5.15655563 137.49787384 5.94505402 137.31993103 6.75744629 C136.50658988 10.27575967 135.50023914 13.72554553 134.46121216 17.18275452 C134.24755005 17.9008429 134.03388794 18.61893127 133.81375122 19.35877991 C132.24689554 24.60088431 130.64568517 29.83245831 129.02371216 35.05775452 C128.81319214 35.73781555 128.60267212 36.41787659 128.38577271 37.11854553 C126.89499096 41.87769691 126.89499096 41.87769691 125.77371216 44.12025452 C124.8515711 44.12245436 124.8515711 44.12245436 123.91080093 44.12469864 C108.95465392 44.16174482 93.99874269 44.22073019 79.04278946 44.30415726 C71.81018958 44.34397255 64.57769889 44.37635228 57.34500122 44.39125061 C51.04121601 44.40425435 44.73767081 44.43118589 38.43402076 44.47486758 C35.09591482 44.4975122 31.75836863 44.51108626 28.42014313 44.51213837 C24.69420575 44.51449428 20.96921391 44.54146501 17.24343872 44.57435608 C15.58187744 44.56681053 15.58187744 44.56681053 13.88674927 44.55911255 C12.87155212 44.57302536 11.85635498 44.58693817 10.81039429 44.60127258 C9.92916019 44.60495975 9.0479261 44.60864693 8.13998795 44.61244583 C5.1371086 45.03286209 5.1371086 45.03286209 1.77371216 49.12025452 C1.44371216 57.04025452 1.11371216 64.96025452 0.77371216 73.12025452 C39.38371216 73.12025452 77.99371216 73.12025452 117.77371216 73.12025452 C117.77371216 87.64025452 117.77371216 102.16025452 117.77371216 117.12025452 C79.16371216 117.12025452 40.55371216 117.12025452 0.77371216 117.12025452 C-0.59367815 138.75008884 -0.59367815 138.75008884 4.77371216 145.12025452 C7.08501238 145.72500244 7.08501238 145.72500244 9.72810364 145.63923645 C10.75034027 145.65314926 11.7725769 145.66706207 12.82579041 145.68139648 C14.50677071 145.67385094 14.50677071 145.67385094 16.22171021 145.66615295 C17.40233032 145.67649063 18.58295044 145.68682831 19.79934692 145.69747925 C23.03682304 145.72193884 26.27376374 145.72874317 29.51131415 145.72775936 C32.89466924 145.73088537 36.27785163 145.75649693 39.66111755 145.77973938 C46.06776382 145.82032718 52.47430823 145.84064651 58.88106328 145.85371327 C66.17491864 145.869574 73.46860044 145.9079856 80.76235521 145.94830656 C95.76608338 146.0307434 110.76979388 146.08481175 125.77371216 146.12025452 C126.24862252 147.37212031 126.72212399 148.62452062 127.1950531 149.87713623 C127.45888951 150.5745074 127.72272593 151.27187857 127.99455738 151.99038219 C129.20349676 155.29509983 130.23447142 158.64776136 131.25418091 162.01478577 C131.47189651 162.72882065 131.68961212 163.44285553 131.91392517 164.17852783 C132.36811971 165.67131054 132.82096319 167.16450496 133.27249146 168.65809631 C133.96518005 170.94585938 134.6651416 173.23131651 135.36550903 175.51673889 C135.80800716 176.97428742 136.25007987 178.43196519 136.69168091 179.88978577 C137.00567085 180.9116674 137.00567085 180.9116674 137.32600403 181.95419312 C138.17820205 184.79286365 138.77371216 187.13704651 138.77371216 190.12025452 C119.70149847 190.23733867 100.62935826 190.32536507 81.55685902 190.37931538 C72.7000657 190.40503737 63.8434964 190.44007221 54.98684692 190.49745178 C47.26247631 190.54747157 39.53826804 190.57958912 31.81373996 190.59069699 C27.72802187 190.59718453 23.64276798 190.61230462 19.55719948 190.6489048 C15.70180417 190.68315909 11.84705869 190.69324915 7.99152565 190.68579292 C6.58596245 190.68715448 5.18037467 190.6969108 3.77494431 190.71628189 C-9.19671113 190.88611186 -20.07414302 187.97012867 -30.00753784 179.34291077 C-39.2336215 170.10058401 -43.62445449 159.07883303 -43.7684021 146.05947876 C-43.76030518 144.98689316 -43.75220825 143.91430756 -43.74386597 142.80921936 C-43.75087524 141.64334793 -43.75788452 140.4774765 -43.7651062 139.27627563 C-43.7825675 135.46099827 -43.77110649 131.64647559 -43.75753784 127.83119202 C-43.76023579 125.15944005 -43.76411566 122.48771017 -43.76913452 119.81596375 C-43.77637943 114.23306748 -43.76690479 108.65038399 -43.74777222 103.06752014 C-43.72598791 96.63711416 -43.73307846 90.20721531 -43.75507784 83.77682149 C-43.77329702 78.22653156 -43.77575919 72.67639323 -43.76532316 67.12608302 C-43.7591265 63.8237835 -43.75974571 60.52177111 -43.77146912 57.21947861 C-43.78167751 53.53680824 -43.76607269 49.85509971 -43.74386597 46.17250061 C-43.75196289 45.09586655 -43.76005981 44.01923248 -43.7684021 42.90997314 C-43.63064898 30.51975678 -38.33142713 20.66202414 -30.22628784 11.49525452 C-22.04753577 3.66414515 -11.12582008 -0.00964109 0 0 Z " fill="#FEFEFE" transform="translate(1226.2262878417969,105.87974548339844)"/>
<path d="M0 0 C30.7828125 -0.12375 30.7828125 -0.12375 62.1875 -0.25 C68.64723389 -0.28641602 75.10696777 -0.32283203 81.76245117 -0.36035156 C89.70178223 -0.37841797 89.70178223 -0.37841797 93.42842102 -0.3817749 C96.00983775 -0.38788414 98.59044818 -0.40035325 101.17170715 -0.42230225 C105.10045043 -0.45525871 109.02887692 -0.45561637 112.95776367 -0.45410156 C114.09140193 -0.468494 115.22504019 -0.48288643 116.39303112 -0.497715 C131.07965153 -0.4224986 143.4775537 4.74211292 154.25 14.6875 C164.61543277 25.89565088 168.1515642 39.67433725 172.4005127 53.98175049 C173.0417888 56.14068727 173.68620772 58.29867018 174.33105469 60.45654297 C176.21986426 66.78183477 178.10741149 73.10743488 179.96777344 79.44116211 C182.70293438 88.74145429 185.55547341 97.99746402 188.49121094 107.23632812 C190.98150054 115.07955795 193.39456645 122.94673116 195.8125 130.8125 C196.0677948 131.64208221 196.3230896 132.47166443 196.58612061 133.3263855 C200.5251691 146.12959237 204.41144535 158.94780079 208.23364258 171.78637695 C208.74060669 173.48733521 208.74060669 173.48733521 209.2578125 175.22265625 C209.5480127 176.19984619 209.83821289 177.17703613 210.13720703 178.18383789 C210.74714885 180.17469214 211.40980769 182.14975327 212.10888672 184.11108398 C213 187 213 187 213 191 C197.82 191 182.64 191 167 191 C163.62585034 182.00226757 163.62585034 182.00226757 162.421875 177.99609375 C162.15181641 177.10277344 161.88175781 176.20945312 161.60351562 175.2890625 C161.32185547 174.34804688 161.04019531 173.40703125 160.75 172.4375 C160.13027822 170.38409349 159.51048454 168.33070868 158.890625 166.27734375 C158.57673828 165.23433105 158.26285156 164.19131836 157.93945312 163.11669922 C156.46989453 158.24133928 154.98454941 153.37081164 153.5 148.5 C152.91658236 146.58335899 152.33324924 144.66669226 151.75 142.75 C151.316875 141.326875 151.316875 141.326875 150.875 139.875 C141.25 108.25 141.25 108.25 140.37475586 105.37402344 C139.7923659 103.46057254 139.20984672 101.54716096 138.62719727 99.63378906 C137.15335913 94.79323821 135.6818898 89.95198904 134.21484375 85.109375 C133.0477849 81.25721772 131.8742378 77.40713506 130.6953125 73.55859375 C129.56516427 69.86914413 128.45857595 66.17374321 127.3671875 62.47265625 C126.84932503 60.75249373 126.33111312 59.03243636 125.8125 57.3125 C125.5868335 56.52842773 125.36116699 55.74435547 125.12866211 54.93652344 C124.90702393 54.21110352 124.68538574 53.48568359 124.45703125 52.73828125 C124.27116455 52.10962158 124.08529785 51.48096191 123.89379883 50.83325195 C122.61655066 48.21351514 121.29085835 46.83010008 119 45 C116.41363968 44.59670973 114.24646606 44.43522879 111.66113281 44.45410156 C110.54528872 44.43851007 110.54528872 44.43851007 109.40690231 44.42260361 C107.00541051 44.39352312 104.60477532 44.3915363 102.203125 44.390625 C100.71791825 44.37662701 99.23272717 44.36084951 97.74755859 44.34326172 C92.24853659 44.2906097 86.7492285 44.27238616 81.25 44.25 C62.81125 44.12625 62.81125 44.12625 44 44 C44 92.51 44 141.02 44 191 C29.48 191 14.96 191 0 191 C0 127.97 0 64.94 0 0 Z " fill="#FDFEFE" transform="translate(790,106)"/>
<path d="M0 0 C9.57 0 19.14 0 29 0 C29 194.7 29 389.4 29 590 C19.43 590 9.86 590 0 590 C0 395.3 0 200.6 0 0 Z " fill="#CF1E35" transform="translate(1701,24)"/>
<path d="M0 0 C0.06469482 0.64735107 0.12938965 1.29470215 0.19604492 1.96166992 C4.62045734 45.03228038 18.97982582 80.70886122 48 113 C48.60199219 113.67546875 49.20398438 114.3509375 49.82421875 115.046875 C55.53627179 121.08985302 62.35063274 126.04392821 69 131 C69.84232178 131.63276855 69.84232178 131.63276855 70.70166016 132.27832031 C86.06614232 143.64704382 104.33139045 152.79333998 123 157 C124.91863324 157.53465913 126.83539889 158.07607697 128.75 158.625 C133.81374846 160.05022722 138.78251269 160.95650254 144 162 C144 181.8 144 201.6 144 222 C86.68321451 216.26832145 31.34297324 188.23483194 -5.625 143.5625 C-7.08867199 141.71254474 -8.54692199 139.85828804 -10 138 C-10.77730469 137.05125 -11.55460937 136.1025 -12.35546875 135.125 C-33.94120591 108.22004303 -47.9492976 75.57763481 -55 42 C-55.15984375 41.25024902 -55.3196875 40.50049805 -55.484375 39.72802734 C-58.12769489 27.16371264 -59.23145094 14.83266885 -59 2 C-56.16994067 1.05664689 -54.31969722 0.85027112 -51.38012695 0.79467773 C-50.44517899 0.77473251 -49.51023102 0.75478729 -48.54695129 0.73423767 C-47.03290962 0.70916893 -47.03290962 0.70916893 -45.48828125 0.68359375 C-44.44608932 0.66281265 -43.4038974 0.64203156 -42.3301239 0.62062073 C-38.99098351 0.55520123 -35.65176161 0.49637019 -32.3125 0.4375 C-30.0813722 0.39429182 -27.85025224 0.3506768 -25.61914062 0.30664062 C-8.21063688 -0.02853656 -8.21063688 -0.02853656 0 0 Z " fill="#FEFDFE" transform="translate(151,323)"/>
<path d="M0 0 C66.66 0 133.32 0 202 0 C200.23735388 6.46303576 198.47589178 12.89187025 196.51953125 19.29296875 C196.32597046 19.93061157 196.13240967 20.56825439 195.9329834 21.22521973 C195.22785705 23.54649734 194.52003508 25.86695544 193.8125 28.1875 C192.224375 33.405625 190.63625 38.62375 189 44 C167.22 44 145.44 44 123 44 C123 92.18 123 140.36 123 190 C108.15 190 93.3 190 78 190 C78 141.82 78 93.64 78 44 C56.22 44 34.44 44 12 44 C9.69 36.08 7.38 28.16 5 20 C2.94432666 13.51682047 2.94432666 13.51682047 0.84765625 7.046875 C0 4 0 4 0 0 Z " fill="#FDFDFE" transform="translate(970,106)"/>
<path d="M0 0 C14.85 0 29.7 0 45 0 C45 63.03 45 126.06 45 191 C30.48 191 15.96 191 1 191 C-0.70111709 189.29888291 -0.12227496 187.16733433 -0.12908131 184.89802688 C-0.12616847 184.16165955 -0.12325563 183.42529221 -0.12025452 182.66661072 C-0.12110894 181.88988134 -0.12196337 181.11315197 -0.12284368 180.31288534 C-0.12450084 177.69025678 -0.11897329 175.0676911 -0.11352539 172.44506836 C-0.11324354 170.57302349 -0.1134012 168.70097852 -0.1139679 166.82893372 C-0.11425597 161.7299724 -0.10835769 156.63103438 -0.10139394 151.5320785 C-0.09516199 146.20958367 -0.09455673 140.88708837 -0.09336853 135.56459045 C-0.09025474 125.47815109 -0.08204072 115.39172251 -0.07201904 105.3052879 C-0.06085937 93.82543621 -0.05534782 82.34558402 -0.05032361 70.86572826 C-0.03985814 47.24381148 -0.02151207 23.62190948 0 0 Z " fill="#FCFCFC" transform="translate(718,106)"/>
<path d="M0 0 C26.79268464 -0.16043524 26.79268464 -0.16043524 38.1953125 -0.1953125 C45.98220696 -0.21924295 53.76891365 -0.24758147 61.55566406 -0.30175781 C67.83207509 -0.3451537 74.10828484 -0.36912422 80.38483429 -0.37950897 C82.78189514 -0.38691153 85.17894473 -0.40136659 87.5759201 -0.42292023 C90.92813605 -0.45187016 94.27951552 -0.45595941 97.63183594 -0.45410156 C98.62733459 -0.46848267 99.62283325 -0.48286377 100.64849854 -0.49768066 C107.29331765 -0.45771513 107.29331765 -0.45771513 110.61566162 1.69415283 C112.27981546 4.46607947 112.50663951 6.12228825 112.51757812 9.34765625 C112.53018677 10.41556396 112.54279541 11.48347168 112.55578613 12.58374023 C112.54768921 13.73173096 112.53959229 14.87972168 112.53125 16.0625 C112.53699036 17.83765991 112.53699036 17.83765991 112.54284668 19.64868164 C112.54556809 22.15023652 112.53819103 24.65181974 112.52148438 27.15332031 C112.50008003 30.98567049 112.52128045 34.81614574 112.546875 38.6484375 C112.54423177 41.07812914 112.53910689 43.50781962 112.53125 45.9375 C112.53934692 47.08549072 112.54744385 48.23348145 112.55578613 49.41625977 C112.54317749 50.48416748 112.53056885 51.5520752 112.51757812 52.65234375 C112.51439575 53.59070068 112.51121338 54.52905762 112.50793457 55.49584961 C112 58 112 58 110.61566162 60.30584717 C106.48412863 62.98182339 102.45055459 62.5237134 97.63183594 62.45410156 C96.57786621 62.45468567 95.52389648 62.45526978 94.43798828 62.45587158 C90.95311589 62.45308414 87.46909804 62.42195968 83.984375 62.390625 C81.56870999 62.38316499 79.15303894 62.37747093 76.73736572 62.37347412 C70.3782888 62.35819905 64.01957711 62.31890049 57.66064453 62.2746582 C50.03154041 62.2265536 42.40231418 62.20818047 34.77310181 62.18484497 C23.18181382 62.14605128 11.59132729 62.06940915 0 62 C0 41.54 0 21.08 0 0 Z " fill="#2C3B4C" transform="translate(1193,386)"/>
<path d="M0 0 C0.88815903 -0.00058411 1.77631805 -0.00116821 2.69139099 -0.00177002 C5.62441209 0.0010147 8.55641446 0.03212506 11.48925781 0.06347656 C13.52377772 0.07093757 15.55830481 0.07663116 17.59283447 0.08062744 C22.94581976 0.09589475 28.29837043 0.13518628 33.65118408 0.17944336 C40.07467161 0.22756919 46.49830453 0.24592483 52.92192078 0.26925659 C62.67904367 0.30803636 72.43521306 0.38468296 82.19238281 0.45410156 C82.19238281 20.91410156 82.19238281 41.37410156 82.19238281 62.45410156 C45.56238281 62.45410156 8.93238281 62.45410156 -28.80761719 62.45410156 C-27.68329324 53.45951001 -27.68329324 53.45951001 -26.45996094 49.59082031 C-26.18837158 48.71659424 -25.91678223 47.84236816 -25.63696289 46.94165039 C-25.34265381 46.01763428 -25.04834473 45.09361816 -24.74511719 44.14160156 C-24.11070872 42.11866388 -23.47797009 40.09520196 -22.84667969 38.07128906 C-22.51442383 37.00620117 -22.18216797 35.94111328 -21.83984375 34.84375 C-20.75142455 31.26957492 -19.72238641 27.68222286 -18.70605469 24.08691406 C-18.35808838 22.86786377 -18.01012207 21.64881348 -17.65161133 20.39282227 C-16.97419123 18.0113499 -16.3063936 15.62711521 -15.64916992 13.23999023 C-15.33665283 12.15177979 -15.02413574 11.06356934 -14.70214844 9.94238281 C-14.29766479 8.49665894 -14.29766479 8.49665894 -13.88500977 7.02172852 C-11.02648732 0.20933773 -6.83609729 -0.11752108 0 0 Z " fill="#2C3B4C" transform="translate(994.8076171875,385.5458984375)"/>
<path d="M0 0 C22.26038918 -0.16043524 22.26038918 -0.16043524 31.74804688 -0.1953125 C38.2223827 -0.21922533 44.69649228 -0.24751632 51.1706543 -0.30175781 C56.39020581 -0.3452144 61.60951471 -0.36913697 66.82923317 -0.37950897 C68.82076652 -0.38690064 70.81228657 -0.40133482 72.80371666 -0.42292023 C75.59298792 -0.45195156 78.3812563 -0.4559561 81.1706543 -0.45410156 C81.99424438 -0.46848267 82.81783447 -0.48286377 83.66638184 -0.49768066 C87.50623804 -0.47004979 89.5973719 -0.22574348 93.01139832 1.68841553 C95.4244648 4.49340511 95.63172979 5.77576185 95.64697266 9.43945312 C95.66273346 10.52738159 95.67849426 11.61531006 95.69473267 12.73620605 C95.68461151 13.90607056 95.67449036 15.07593506 95.6640625 16.28125 C95.66884613 17.48688599 95.67362976 18.69252197 95.67855835 19.93469238 C95.68196033 22.48333033 95.67273736 25.03201174 95.65185547 27.58056641 C95.62509806 31.48568863 95.65159739 35.38793612 95.68359375 39.29296875 C95.68028971 41.76823552 95.67388361 44.24350051 95.6640625 46.71875 C95.67924423 48.47354675 95.67924423 48.47354675 95.69473267 50.26379395 C95.67897186 51.35172241 95.66321106 52.43965088 95.64697266 53.56054688 C95.64100571 54.99472961 95.64100571 54.99472961 95.63491821 56.45788574 C95 59 95 59 93.01139832 61.31158447 C88.94036087 63.59411309 85.76162727 63.53426675 81.1706543 63.45410156 C80.29210281 63.45468567 79.41355133 63.45526978 78.50837708 63.45587158 C75.61325147 63.4530916 72.71916382 63.42200375 69.82421875 63.390625 C67.81354841 63.3831623 65.80287078 63.37746951 63.79219055 63.37347412 C58.50662059 63.35822011 53.22149205 63.31894004 47.93609619 63.2746582 C41.59101229 63.22649636 35.24578058 63.2081704 28.9005661 63.18484497 C19.26673729 63.14608915 9.63387657 63.06943334 0 63 C0 42.21 0 21.42 0 0 Z " fill="#2D3C4D" transform="translate(1433,150)"/>
<path d="M0 0 C21.08885542 0 21.08885542 0 27.5 0.75 C28.67006592 0.88196777 28.67006592 0.88196777 29.86376953 1.01660156 C38.3912628 2.05700038 46.68647207 3.86384953 55 6 C55.83289551 6.21140625 56.66579102 6.4228125 57.52392578 6.640625 C70.53498683 9.99643006 82.79197907 14.39645851 95 20 C95.64984863 20.29471191 96.29969727 20.58942383 96.96923828 20.89306641 C104.23334721 24.2169291 104.23334721 24.2169291 107 26 C108 29 108 29 106.81933594 31.77709961 C106.21379883 32.89093018 105.60826172 34.00476074 104.984375 35.15234375 C104.65717468 35.76065536 104.32997437 36.36896698 103.99285889 36.99571228 C102.92150066 38.98167573 101.83599381 40.95950787 100.75 42.9375 C100.0141406 44.29463311 99.27911728 45.65221987 98.54492188 47.01025391 C96.71643913 50.3860539 94.87603211 53.75515235 93.0300293 57.12139893 C92.07114086 58.87025098 91.11457843 60.62037782 90.15820312 62.37060547 C87.12352838 67.9238478 84.07220186 73.46743308 81 79 C76.65208501 78.37305346 73.28652264 76.77693432 69.375 74.8125 C60.54638666 70.55287847 51.43320465 67.61385666 42 65 C41.26942383 64.79745605 40.53884766 64.59491211 39.78613281 64.38623047 C26.48860061 60.81911469 13.95531406 60.16294284 0 59 C0 39.53 0 20.06 0 0 Z " fill="#FEFDFD" transform="translate(319,92)"/>
<path d="M0 0 C5.22706762 1.65888972 9.31223887 4.86474021 13.6875 8.0625 C14.89188721 8.93769287 14.89188721 8.93769287 16.12060547 9.83056641 C22.10713964 14.23118354 27.60113071 18.89432773 33 24 C34.32844855 25.15149305 35.66165404 26.29752548 37 27.4375 C45.53679872 34.90934596 53.00740926 43.08087916 60 52 C60.42345703 52.53592773 60.84691406 53.07185547 61.28320312 53.62402344 C75.03873654 71.05647779 75.03873654 71.05647779 74.96044922 74.984375 C73.50586546 78.03700426 71.33701205 78.98906603 68.4453125 80.6875 C67.87610077 81.02722336 67.30688904 81.36694672 66.72042847 81.71696472 C64.86199439 82.82311105 62.99395099 83.91173385 61.125 85 C58.56243062 86.51242786 56.00400818 88.03181191 53.4453125 89.55078125 C52.80837463 89.92713211 52.17143677 90.30348297 51.51519775 90.6912384 C47.63478228 92.99304305 43.82452112 95.37462874 40.0546875 97.85546875 C39.18956543 98.42330078 38.32444336 98.99113281 37.43310547 99.57617188 C35.84324259 100.6290612 34.26110033 101.6937282 32.68798828 102.77148438 C31.98657715 103.23232422 31.28516602 103.69316406 30.5625 104.16796875 C29.96566406 104.57297607 29.36882812 104.9779834 28.75390625 105.39526367 C27 106 27 106 24.8984375 105.27368164 C22.13023974 103.41646872 20.79909101 101.04404286 19 98.25 C13.93506625 90.62625871 8.11356519 83.79681974 2 77 C1.35804688 76.27296875 0.71609375 75.5459375 0.0546875 74.796875 C-8.60932536 65.550081 -19.69544815 58.29849336 -30 51 C-28.6978697 47.55095946 -27.19164104 44.43148218 -25.3125 41.26171875 C-24.78333984 40.36662598 -24.25417969 39.4715332 -23.70898438 38.54931641 C-23.14501953 37.60491699 -22.58105469 36.66051758 -22 35.6875 C-21.42056641 34.71216309 -20.84113281 33.73682617 -20.24414062 32.73193359 C-15.6482731 25.02285878 -10.94291704 17.38754361 -6.140625 9.80566406 C-4.08096515 6.54512377 -2.04139969 3.27199293 0 0 Z " fill="#FEFDFD" transform="translate(437,125)"/>
<path d="M0 0 C10.78143532 -0.12835042 21.53674072 0.05941577 32.3125 0.4375 C33.46717773 0.47673584 34.62185547 0.51597168 35.81152344 0.55639648 C43.55965198 0.84399801 51.27408943 1.34932137 59 2 C59.70485513 17.60776858 57.53418399 34.04684005 53 49 C40.5348847 46.73505529 28.18579794 43.96953509 15.86190796 41.04098511 C14.15937799 40.63796939 12.45576947 40.23948359 10.75112915 39.8454895 C8.32690613 39.28358039 5.90736588 38.70467441 3.48828125 38.12109375 C2.74747314 37.95237762 2.00666504 37.7836615 1.2434082 37.60983276 C-0.80737305 37.10327148 -0.80737305 37.10327148 -4 36 C-5.06656014 32.80031959 -4.96927051 32.17270928 -4.1875 29.0625 C-2.79142946 22.72358514 -2.2719927 16.32375273 -1.69799805 9.86938477 C-1.62105713 9.02690186 -1.54411621 8.18441895 -1.46484375 7.31640625 C-1.36610962 6.17860718 -1.36610962 6.17860718 -1.26538086 5.01782227 C-1 3 -1 3 0 0 Z " fill="#FEFBFC" transform="translate(487,323)"/>
<path d="M0 0 C3.24465553 3.83178367 5.1951956 8.24035251 7.3125 12.75 C7.70622803 13.58748779 8.09995605 14.42497559 8.50561523 15.2878418 C11.02903796 20.73133534 13.4093814 26.21186405 15.5625 31.8125 C15.81362549 32.4509082 16.06475098 33.08931641 16.32348633 33.74707031 C17.76139572 37.62483385 18.24631194 40.8758539 18 45 C-0.31226982 51.46140252 -19.12570489 56.47129432 -38 61 C-38.3242395 60.16976318 -38.3242395 60.16976318 -38.6550293 59.32275391 C-39.66105401 56.75491923 -40.67312074 54.1895461 -41.6875 51.625 C-42.049646 50.70847656 -42.41179199 49.79195313 -42.78491211 48.84765625 C-44.98741635 43.3387019 -47.32129578 38.02624632 -50.28515625 32.875 C-51 31 -51 31 -50.94873047 29.11767578 C-49.47511495 25.82839605 -46.62034474 24.78786311 -43.53515625 23.2421875 C-42.87406357 22.89708633 -42.21297089 22.55198517 -41.53184509 22.19642639 C-39.381543 21.07694837 -37.2222178 19.97618525 -35.0625 18.875 C-33.59489477 18.11426904 -32.12809696 17.3519784 -30.66210938 16.58813477 C-28.47788188 15.45008909 -26.29331184 14.31281592 -24.10610962 13.18049622 C-18.34831325 10.19793872 -12.65436525 7.11215258 -7 3.9375 C-6.266604 3.52677246 -5.53320801 3.11604492 -4.77758789 2.69287109 C-3.18346915 1.79807317 -1.59141767 0.89959305 0 0 Z " fill="#FEFCFC" transform="translate(518,210)"/>
<path d="M0 0 C6.25191045 0.74427505 12.26544293 2.18757449 18.375 3.6875 C20.58981986 4.22535882 22.80466439 4.76311603 25.01953125 5.30078125 C26.15986816 5.57873535 27.30020508 5.85668945 28.47509766 6.14306641 C34.33426013 7.5674784 40.19859709 8.97025667 46.0625 10.375 C48.17840945 10.88271233 50.29429713 11.39051545 52.41015625 11.8984375 C53.29840088 12.11161621 54.18664551 12.32479492 55.10180664 12.54443359 C55.72821045 12.69477051 56.35461426 12.84510742 57 13 C56.26695985 20.72368682 55.3733199 28.42351562 54.4375 36.125 C54.22963867 37.84589844 54.22963867 37.84589844 54.01757812 39.6015625 C53.67929428 42.40115296 53.34008374 45.20062772 53 48 C46.36548696 48.02553673 39.73098679 48.04294467 33.09643555 48.05493164 C30.84350104 48.0599335 28.59056974 48.0667371 26.33764648 48.07543945 C23.08316249 48.0876879 19.82872174 48.09326994 16.57421875 48.09765625 C15.08446785 48.10539818 15.08446785 48.10539818 13.56462097 48.11329651 C6.99141772 48.11381359 0.53499581 47.70377799 -6 47 C-6.6529028 31.04015376 -4.3985556 15.34815146 0 0 Z " fill="#FEFCFD" transform="translate(98,266)"/>
<path d="M0 0 C2.37994061 8.49014274 3.62968442 17.01166262 4.6875 25.75 C4.81874268 26.81468506 4.94998535 27.87937012 5.08520508 28.97631836 C5.7885817 35.03026351 6.13386078 40.90614736 6 47 C-13.65187766 48.31955054 -33.31583295 48.09900726 -53 48 C-53.17390259 46.72938721 -53.17390259 46.72938721 -53.35131836 45.43310547 C-53.78487014 42.26845917 -54.21920282 39.10392128 -54.65405273 35.93945312 C-54.84153685 34.57393571 -55.02871627 33.20837642 -55.21557617 31.84277344 C-55.48534906 29.8716329 -55.75633523 27.90065853 -56.02734375 25.9296875 C-56.18968506 24.74616699 -56.35202637 23.56264648 -56.51928711 22.34326172 C-56.9683736 19.21995527 -57.46784325 16.11011457 -58 13 C-57.07477539 12.78384033 -56.14955078 12.56768066 -55.19628906 12.3449707 C-50.88040998 11.33606253 -46.56516242 10.32446831 -42.25 9.3125 C-41.47589783 9.13114502 -40.70179565 8.94979004 -39.90423584 8.76293945 C-29.82337972 6.39948891 -19.75352202 4.00705384 -9.73925781 1.37231445 C-6.3378176 0.49438757 -3.54359908 0 0 0 Z " fill="#FEFDFD" transform="translate(540,266)"/>
</svg>
