<?xml version="1.0" encoding="iso-8859-1"?>
<!-- Generator: Adobe Illustrator 29.6.1, SVG Export Plug-In . SVG Version: 9.03 Build 0)  -->
<svg version="1.1" id="Warstwa_1" xmlns:xodm="http://www.corel.com/coreldraw/odm/2003"
	 xmlns="http://www.w3.org/2000/svg" xmlns:xlink="http://www.w3.org/1999/xlink" x="0px" y="0px" viewBox="0 0 5906 3484"
	 style="enable-background:new 0 0 5906 3484;" xml:space="preserve">
<g id="Warstwa_x0020_1">
	<polygon style="fill-rule:evenodd;clip-rule:evenodd;fill:#080F08;" points="5235.956,738.921 5307.92,980.345 5205.5,1068.363 
		5133.537,826.939 	"/>
	<path style="fill-rule:evenodd;clip-rule:evenodd;fill:#080F08;stroke:#000000;stroke-width:0.8511;stroke-miterlimit:10;" d="
		M5087.166,762.297c128.602,22.261,204.676,234.601,169.917,474.274c-34.759,239.674-167.189,415.921-295.79,393.66
		c-128.602-22.261-204.676-234.601-169.917-474.274C4826.135,916.284,4958.564,740.036,5087.166,762.297z"/>
	
		<ellipse style="fill-rule:evenodd;clip-rule:evenodd;fill:#080F08;stroke:#000000;stroke-width:1.1808;stroke-miterlimit:10;" cx="3517.584" cy="1313.083" rx="340.434" ry="545.725"/>
	<path style="fill-rule:evenodd;clip-rule:evenodd;fill:#080F08;" d="M1051.175,1080.289l33.305-112.345L939.463,835.646
		l-121.029,246.251l51.891,82.79L1051.175,1080.289z"/>
	<path style="fill-rule:evenodd;clip-rule:evenodd;fill:#FCD202;" d="M2422.684,1679.363
		c-306.492,30.988-832.46,7.139-1155.202,3.893c-90.747-0.912-300.289,6.218-355.798-37.248
		c-1.82-56.519,132.391-184.275,165.979-187.97c30.615-3.368,91.014-0.027,124.383,0.455
		c152.153,2.194,313.097,10.717,466.022,17.33c150.419,6.504,313.518,3.225,461.961,16.276
		c45.666,4.015,111.112,60.826,151.938,89.014C2315.031,1603.941,2405.724,1659.49,2422.684,1679.363z M2376.681,1450.364
		c76.709-77.77,544.652-161.254,609.922-121.67c36.23,21.972,65.426,123.94,73.214,181.452
		c15.214,112.384-24.172,111.96-122.2,122.739c-76.105,8.369-165.483,13.374-239.226-1.605
		C2616.145,1614.574,2412.929,1495.025,2376.681,1450.364z M845.862,1318.742c16.191,3.708,137.647,76.068,147.777,87.862
		c-28.154,60.434-68.459,118.698-124.398,157.877C842.649,1484.486,857.129,1400.787,845.862,1318.742z M1121.618,1035.099
		c97.784-4.327,240.186,7.632,343.107,11.161c113.767,3.898,227.96,3.395,342.355,6.845c93.135,2.81,248.866-10.731,319.997,26.615
		c42.895,22.522,170.375,131.168,189.935,159.141c-23.176,28.29-153.296,127.212-210.556,131.542
		c-102.977,7.782-242.261-1.123-347.649-5.015c-222.939-8.234-459.991-16.383-682.312-17.905
		c-39.187-60.952-97.784-119.534-74.623-162.029C1027.781,1137.916,1085.421,1070.611,1121.618,1035.099z M3944.412,1383.316
		l26.444-65.05c34.688-15.081,386.148-62.655,453.772-72.858c158.841-23.962,299.212-52.153,444.802-86.964
		c-69.262,62.674-310.198,117.1-432.476,142.508L3944.412,1383.316z M2303.326,1027.821
		c69.423-10.516,151.821-29.125,229.315-40.663c76.076-11.325,151.757-21.672,228.195-34.465
		c129.547-21.683,344.472-58.866,474.331-55.395c-4.755,29.571-114.782,195.657-137.356,224.765
		c-71.11,91.698-129.187,80.487-269.581,89.097c-58.485,3.587-115.561,4.714-175.045,6.922c-94.062,3.49-83.61,6.692-144.765-38.581
		C2477.92,1156.919,2315.869,1050.063,2303.326,1027.821z M5087.286,730.173l-1181.12,158.165l-46.485-61.729L5087.286,730.173z
		 M2530.57,908.964c68.214-29.033,161.051-50.689,233.949-76.397c77.8-27.435,151.654-47.239,231.295-75.202
		c138.505-48.632,331.806-116.268,495.525-122.224c-32.865,15.8-81.764,23.616-123.285,34.842
		c-106.395,28.766-222.98,84.797-342.02,117.263C2953.187,807.112,2579.409,906.474,2530.57,908.964z M1172.903,847.728
		c15.063-25.481,28.724-32.307,51.56-52.71c122.317-109.286,336.729-178.822,488.64-188.789
		c-36.009,17.192-108.283,31.554-148.972,46.838C1418.638,707.719,1295.624,758.552,1172.903,847.728z M3844.199,581.681
		c9.903-50.362,97.989-205.745,122.723-253.415c45.461-87.618,86.184-160.486,193.39-185.491
		c97.849-22.821,243.487-7.445,333.283,21.658c121.707,39.445,244.825,139.82,339.458,221.936
		c27.624,23.968,92.044,56.665,48.191,104.743c-61.458,67.375-195.845,64.512-309.125,72.948
		C4483.742,570.64,3911.859,587.795,3844.199,581.681z M2359.473,340.017c135.866-80.201,244.748-137.699,427.317-170.421
		c253.917-45.511,882.383-51.764,1140.401-14.823c4.174,63.749-174.522,353.822-207.306,378.51
		c-50.022,37.669-467.102,24.283-563.47,25.203c-388.105,3.705-777.852,2.498-1165.555,15.318L2359.473,340.017z M939.463,835.646
		c30.27,50.489,106.322,93.137,137.323,140.661c-26.08,33.592-75.467,82.667-114.598,110.207
		c-60.386,42.498-91.396,42.359-143.754-4.617c-41.775,142.958-21.222,218.313-11.42,362.22
		c7.563,111.032-85.345,277.063,73.499,284.163c256.094,11.444,543.102,0.303,802.681,0.455
		c184.05,0.109,1517.823,27.779,1573.449-8.134c31.392-19.054,25.106-36.145,32.323-109.443
		c22.204-225.549,45.488-628.914,252.054-738.727c152.377-81.004,256.505,91.729,285.62,242.978
		c38.614,200.617,0.42,326.272-30.84,510.173c210.135-20.31,418.085-46.439,623.467-78.467
		c103.018-16.066,199.075-34.44,303.01-47.117c216.334-26.386,207.809-11.247,230.086-120.988
		c37.006-182.294,46.136-435.37,158.03-541.966c131.756-125.52,171.755,227.126,147.545,396.212
		c-4.255,29.72-13.165,53.838-1.088,71.385c55.422-28.455,63.642-273.859,56.505-347.94
		c-50.069-519.851-237.361-454.002-304.918-511.977c-82.169-70.515-88.581-93.682-215.535-193.341
		C4612.278,109.59,4492.503,60.118,4195.266,32.961c-252.182-23.04-544.193-20.915-798.174-13.862
		c-676.873,18.797-931.573,132.995-1384.798,454.592c-54.139,38.414-87.65,70.768-131.712,72.296
		c-121.499,4.213-252.669,17.396-368.781,39.705c-164.686,31.643-315.198,78.257-451.578,161.269
		C1012.04,776.29,977.631,808.111,939.463,835.646z"/>
	<path style="fill-rule:evenodd;clip-rule:evenodd;fill:#FDCD02;" d="M56.462,2915.144c-4.329,71.171-42.384,176.069-43.157,242.413
		c-1.036,88.787,149.55,54.32,222.676,48.508c179.647-14.28,363.407-25.549,543.016-34.247
		c354.454-17.164,724.508-43.804,1080.349-70.623c358.938-27.049,724.958-46.304,1084.566-69.007
		c179.823-11.354,360.191-28.604,540.947-35.444c82.593-3.125,182.858-10.183,264.177-17.863
		c89.001-8.408,208.045,10.907,215.2-75.671c-109.308,18.434-799.065,12.052-960.978,11.971
		C2021.844,2914.695,1036.788,2920.294,56.462,2915.144z"/>
	<path style="fill-rule:evenodd;clip-rule:evenodd;fill:#080F08;" d="M1990.859,573.805
		c387.704-12.82,777.45-11.612,1165.555-15.318c96.369-0.92,513.448,12.466,563.47-25.203
		c32.784-24.688,211.48-314.761,207.306-378.51c-258.018-36.941-886.485-30.688-1140.401,14.823
		c-182.569,32.722-291.451,90.22-427.317,170.421L1990.859,573.805z"/>
	<path style="fill-rule:evenodd;clip-rule:evenodd;fill:#FCD202;" d="M2191.083,2744.802l195.177-0.678
		c18.023-72.129,52.869-162.425,79.227-234.41c22.356-61.056,53.977-175.455,84.301-226.661l-30.987,461.522l192.731-0.487
		c21.327-32.923,119.039-332.706,143.613-398.988c47.543-128.234,101.826-269.486,139.479-397.366l-156.127,0.785l-171.599,537.962
		c0.488-5.079-5.51-5.275-1.266-52.302l20.414-484.525l-144.749-1.38c-30.778,62.287-106.869,305.753-143.723,406.405
		l-34.502,96.857c-1.958,5.369-3.708,10.49-6.103,15.565c-0.955,2.022-4.213,7.97-5.149,9.646l35.367-529.74l-175.43,1.491
		L2191.083,2744.802z"/>
	<path style="fill-rule:evenodd;clip-rule:evenodd;fill:#080F08;" d="M1121.618,1035.099
		c-36.197,35.512-93.837,102.817-119.747,150.355c-23.16,42.494,35.437,101.077,74.623,162.029
		c222.322,1.522,459.373,9.672,682.312,17.905c105.388,3.892,244.672,12.797,347.649,5.015
		c57.26-4.329,187.381-103.252,210.556-131.542c-19.559-27.974-147.039-136.619-189.935-159.141
		c-71.131-37.346-226.862-23.805-319.997-26.615c-114.395-3.45-228.588-2.947-342.355-6.845
		C1361.804,1042.73,1219.402,1030.771,1121.618,1035.099z"/>
	<path style="fill-rule:evenodd;clip-rule:evenodd;fill:#FCD202;" d="M4919.827,2745.268l162.018-1.824
		c23.019-50.865,64.107-365.717,84.237-430.318c0.578-1.857,1.722-4.432,2.229-5.921c0.504-1.488,1.323-4.033,2.382-5.856
		c12.869,70.401,72.514,402.532,93.45,441.711l189.652,0.242l147.761-796.067c-51.516,1.513-125.628-9.542-164.972,5.116
		l-86.816,430.847l-92.039-436.787l-191.365,0.323L4919.827,2745.268z"/>
	<path style="fill-rule:evenodd;clip-rule:evenodd;fill:#080F08;" d="M3844.199,581.681c67.661,6.114,639.543-11.041,727.921-17.622
		c113.28-8.436,247.667-5.573,309.125-72.948c43.853-48.078-20.568-80.774-48.191-104.743
		c-94.633-82.115-217.751-182.491-339.458-221.936c-89.796-29.102-235.435-44.479-333.283-21.658
		c-107.207,25.005-147.929,97.873-193.39,185.491C3942.188,375.936,3854.101,531.319,3844.199,581.681z"/>
	<path style="fill-rule:evenodd;clip-rule:evenodd;fill:#FCD202;" d="M319.37,2400.114
		c99.345-10.152,139.895,16.648,108.757,121.929c-22.328,75.486-58.868,95.393-152.074,94.051L319.37,2400.114z M380.37,2080.172
		c93.499-3.828,126.327,15.772,102.466,117.685c-20.567,87.831-50.036,77.366-141.665,81.309L380.37,2080.172z M92.422,2744.371
		c179.622-2.194,480.256,56.217,511.382-244.103c10.738-103.583-12.516-134.426-86.749-167.429l39.253-18.268
		c107.386-54.535,114.577-227.998,78.436-296.545c-29.507-55.961-82.562-68.595-161.926-69.796
		c-71.986-1.088-168.273-4.751-238.081,1.028L92.422,2744.371z"/>
	<path style="fill-rule:evenodd;clip-rule:evenodd;fill:#FCD202;" d="M3730.052,2082.623
		c104.448-12.707,99.53,52.824,79.663,137.931c-24.91,106.712-13.211,106.441-128.241,109.09L3730.052,2082.623z M3433.797,2744.582
		l174.934-0.269l51.661-279.513l48.941,0.202l37.827,278.701l159.113,0.264l-50.088-317.494
		c128.682-66.328,156.029-290.971,133.641-372.616c-20.235-73.807-65.407-97.245-149.296-104.687
		c-82.456-7.315-176.515,0.864-261.142-2.405L3433.797,2744.582z"/>
	<path style="fill-rule:evenodd;clip-rule:evenodd;fill:#070E07;" d="M2422.684,1679.363
		c-16.96-19.873-107.653-75.421-140.716-98.249c-40.827-28.189-106.272-84.999-151.938-89.014
		c-148.443-13.051-311.543-9.772-461.961-16.276c-152.924-6.613-313.868-15.137-466.022-17.33
		c-33.369-0.482-93.767-3.823-124.383-0.455c-33.588,3.694-167.799,131.451-165.979,187.97
		c55.508,43.466,265.051,36.336,355.798,37.248C1590.224,1686.502,2116.193,1710.351,2422.684,1679.363z"/>
	<path style="fill-rule:evenodd;clip-rule:evenodd;fill:#FAD205;" d="M4931.755,3470.796l128.496,0.101l77.328-384.602l0.049,384.4
		l132.562-0.145l156.77-381.01l-69.908,381.083l131.404-1.235l111.042-589.418l-196.814,0.453l-157.198,388.672l-11.041-389.625
		l-190.622-0.304L4931.755,3470.796z"/>
	<path style="fill-rule:evenodd;clip-rule:evenodd;fill:#FAD205;" d="M3220.949,2152.591l-13.955,311.009l-110.129-0.81
		L3220.949,2152.591z M2842.585,2744.854l156.985-0.363l46.955-140.884l154.528-0.35l-7.69,140.764l174.389-0.083l9.006-796.578
		l-225.623,0.796C3058.124,2217.031,2932.507,2480.561,2842.585,2744.854z"/>
	<path style="fill-rule:evenodd;clip-rule:evenodd;fill:#FCD202;" d="M1914.421,2462.233l-106.486,1.427l105.936-287.066
		c0.983-2.058,4.216-8.264,5.144-10.015L1914.421,2462.233z M1558.856,2745.309l153.735-1.368l47.404-140.972l148.96,0.354
		l-7.317,140.872l176.38,0.279l-0.267-797.055l-218.527,0.656c-27.811,56.37-51.758,134.525-74.845,194.45
		C1745.408,2243.679,1575.821,2675.984,1558.856,2745.309z"/>
	<path style="fill-rule:evenodd;clip-rule:evenodd;fill:#FCD202;" d="M640.21,2744.615l387.569-0.472l22.407-144.132l-213.833,0.961
		l32.761-185.278l186.598-2.19l26.04-147.654l-186.242-0.222l31.095-171.658l209.504-0.126l22.127-145.928l-377.212,0.165
		L640.21,2744.615z"/>
	<path style="fill-rule:evenodd;clip-rule:evenodd;fill:#FAD205;" d="M1218.852,2094.829l214.638-1.146
		c-12.328,26.399-30.491,48.372-46.32,74.152l-145.758,226.473c-83.68,120.323-134.033,190.01-151.354,350.116l418.107-0.594
		l30.575-143.535l-246.551,0.426l201.402-304.195c82.806-121.178,151.073-205.421,159.885-348.862l-356.822,0.523
		c-56.215-0.058-52.67-12.781-62.047,46.015C1229.499,2026.239,1224.159,2060.433,1218.852,2094.829z"/>
	<path style="fill-rule:evenodd;clip-rule:evenodd;fill:#FAD205;" d="M4104.295,2744.657l176.246-0.434
		c11.611-79.575,27.525-157.279,41.332-238.253c21.357-125.261,126.123-265.755,190.542-378.179
		c20.839-36.369,95.083-152.454,102.936-180.844l-177.761,0.885c-50.154,86.321-95.647,211.104-149.533,285.494l-25.06-284.235
		l-179.304-1.497l63.863,400.119C4168.584,2472.466,4127.706,2616.934,4104.295,2744.657z"/>
	<path style="fill-rule:evenodd;clip-rule:evenodd;fill:#FCD202;" d="M4586.862,2609.225c-13.965-38.202,0.389-80.505,6.607-123.313
		c-29.126,0.291-58.663,0.161-87.823-0.011c-27.365-0.159-61.161-4.161-84.224,7.387c-32.829,133.326-4.002,236.867,121.09,255.802
		c131.842,19.956,230.634-35.779,274.102-120.27c27.105-52.689,130.528-596.955,136.175-682.05l-168.862,0.773
		c-16.349,118.719-46.137,250.233-68.692,368.927c-11.198,58.938-23.039,124.974-34.405,184.62
		C4668.762,2564.412,4660.144,2637.217,4586.862,2609.225z"/>
	<path style="fill-rule:evenodd;clip-rule:evenodd;fill:#FAD205;" d="M4628.583,3363.707
		c-14.222-47.02,21.218-188.762,33.291-247.71c18.6-90.815,25.313-169.319,130.024-130.095
		c13.782,53.306-22.073,185.719-34.454,247.957C4740.351,3319.779,4727.393,3405.195,4628.583,3363.707z M4711.763,2870.756
		c-167.944,34.337-165.593,158.593-198.695,330.265c-13.054,67.698-42.183,162.835-4.501,222.291
		c34.671,54.704,112.782,70.867,199.758,53.544c162.156-32.294,168.451-163.433,198.256-327.709
		c12.048-66.414,41.699-166.688,8.308-226.133C4883.688,2867.463,4794.563,2853.829,4711.763,2870.756z"/>
	<path style="fill-rule:evenodd;clip-rule:evenodd;fill:#080F08;" d="M2376.681,1450.364
		c36.247,44.661,239.464,164.21,321.71,180.916c73.743,14.979,163.121,9.974,239.226,1.605
		c98.028-10.779,137.414-10.355,122.2-122.739c-7.788-57.512-36.983-159.48-73.214-181.452
		C2921.333,1289.11,2453.39,1372.594,2376.681,1450.364z"/>
	<path style="fill-rule:evenodd;clip-rule:evenodd;fill:#090E08;" d="M2549.833,1047.38c23.027-12.668,520.225-89.999,577.198-92.75
		c-7.608,16.268-140.171,172.068-152.782,182.308c-25.941,21.067-248.647,30.51-298.545,27.379
		c45.015-19.247,115.381-20.401,163.541-38.048c26.443-9.692,83.107-94.164,90.788-113.281
		C2822.931,1021.34,2653.458,1055.181,2549.833,1047.38z M2303.326,1027.821c12.543,22.243,174.594,129.098,205.094,151.68
		c61.155,45.273,50.702,42.071,144.765,38.581c59.484-2.208,116.56-3.334,175.045-6.922c140.394-8.611,198.471,2.601,269.581-89.097
		c22.573-29.108,132.6-195.194,137.356-224.765c-129.859-3.47-344.783,33.713-474.331,55.395
		c-76.438,12.793-152.118,23.139-228.195,34.465C2455.146,998.696,2372.749,1017.304,2303.326,1027.821z"/>
	<path style="fill-rule:evenodd;clip-rule:evenodd;fill:#FAD205;" d="M4428.531,3258.043l-127.09,0.667
		c-15.49,23.719-30.801,166.616-122.113,93.862c-3.566-61.696,22.309-163.737,34.345-225.417
		c12.558-64.348,22.578-183.54,109.651-146.507c26.938,31.8,10.597,66.082,6.361,110.296c41.182,0.924,103.858,7.307,135.321-4.897
		c49.665-163.527-48.188-254.074-214.065-213.436c-137.139,33.596-149.928,148.94-177.905,296.831
		c-28.258,149.367-75.843,297.64,106.449,313.583C4339.494,3497.018,4407.564,3397.746,4428.531,3258.043z"/>
	<path style="fill-rule:evenodd;clip-rule:evenodd;fill:#FCD202;" d="M5566.26,2742.52l181.127,2.23l145.096-797.408l-180.046,0.726
		L5566.26,2742.52z"/>
	<path style="fill-rule:evenodd;clip-rule:evenodd;fill:#090E08;" d="M4436.954,1300.952
		c122.278-25.408,363.213-79.834,432.476-142.508c-145.589,34.811-285.96,63.001-444.802,86.964
		c-67.624,10.202-419.084,57.777-453.772,72.858l-26.444,65.05L4436.954,1300.952z"/>
	<path style="fill-rule:evenodd;clip-rule:evenodd;fill:#090E08;" d="M3859.681,826.609l46.485,61.729l1181.12-158.165
		L3859.681,826.609z"/>
	<path style="fill-rule:evenodd;clip-rule:evenodd;fill:#FAFAF6;" d="M2549.833,1047.38c103.624,7.801,273.098-26.04,380.199-34.392
		c-7.681,19.116-64.345,103.589-90.788,113.281c-48.159,17.647-118.526,18.801-163.541,38.048
		c49.897,3.131,272.604-6.312,298.545-27.379c12.611-10.239,145.174-166.039,152.782-182.308
		C3070.059,957.381,2572.861,1034.712,2549.833,1047.38z"/>
	<path style="fill-rule:evenodd;clip-rule:evenodd;fill:#0D0C06;" d="M2530.57,908.964
		c48.839-2.491,422.617-101.852,495.464-121.719c119.04-32.466,235.625-88.497,342.02-117.263
		c41.521-11.225,90.42-19.042,123.285-34.842c-163.719,5.956-357.02,73.592-495.525,122.224
		c-79.641,27.964-153.495,47.768-231.295,75.202C2691.621,858.275,2598.784,879.931,2530.57,908.964z"/>
	<path style="fill-rule:evenodd;clip-rule:evenodd;fill:#F3DA0C;" d="M3497.623,1066.121
		c100.914-53.814,147.188-14.174,188.194,65.918c15.936,31.124,34.077,69.967,43.487,109.882
		c9.772,41.457,10.057,92.043,22.866,129.187C3786.371,922.812,3555.404,917.059,3497.623,1066.121z"/>
	<path style="fill-rule:evenodd;clip-rule:evenodd;fill:#090E08;" d="M845.862,1318.742c11.267,82.045-3.213,165.744,23.379,245.739
		c55.938-39.179,96.244-97.443,124.398-157.877C983.508,1394.81,862.053,1322.45,845.862,1318.742z"/>
	<path style="fill-rule:evenodd;clip-rule:evenodd;fill:#F8D505;" d="M3556.782,1443.07c0.05,40.705-0.01,146.677,33.469,176.146
		c35.105-87.247,72.114-222.903,16.991-320.236l-31.326-31.291C3558.097,1325.794,3556.699,1376.349,3556.782,1443.07z"/>
	<path style="fill-rule:evenodd;clip-rule:evenodd;fill:#FAD205;" d="M3796.844,3470.594l123.998-0.058l20.742-124.203
		l-122.789-0.065L3796.844,3470.594z"/>
	<path style="fill-rule:evenodd;clip-rule:evenodd;fill:#0D0D00;" d="M1172.903,847.728
		c122.721-89.176,245.735-140.008,391.228-194.661c40.689-15.284,112.963-29.645,148.972-46.838
		c-151.911,9.966-366.323,79.503-488.64,188.789C1201.627,815.421,1187.966,822.247,1172.903,847.728z"/>
	<path style="fill-rule:evenodd;clip-rule:evenodd;fill:#F3DA0C;" d="M5088.999,1479.177
		c20.604-53.785,39.938-170.345,37.669-233.295l-10.29-55.94c-9.289-18.598-5.1-9.436-12.685-15.496
		c-28.813,42.693-31.445,173.646-29.648,232.452C5074.738,1429.625,5075.281,1459.864,5088.999,1479.177z"/>
	<path style="fill-rule:evenodd;clip-rule:evenodd;fill:#EBD725;" d="M5104.558,961.722c32.991,24.84,50.203,5.174,75.638,112.611
		c16.309,68.888,10.954,112.688,21.099,178.03C5234.597,1154.062,5189.397,797.937,5104.558,961.722z"/>
	<path style="fill-rule:evenodd;clip-rule:evenodd;fill:#FAFAF6;" d="M942.9,1023.585l41.81-53.502
		c-17.216-20.719-37.47-50.482-60.007-59.776c-16.772,16.818-17.136,23.229-27.811,45.621
		c-7.744,16.252-21.709,36.772-28.945,52.548c-20.02,43.65,32.852,8.892,49.259,8.216
		C927.483,1016.269,929.073,1021.58,942.9,1023.585z"/>
</g>
</svg>
