<svg xmlns="http://www.w3.org/2000/svg" version="1.1" viewBox="0 0 473 472"><path fill="#fecf00" d="M312.55 213.64a11.2 11.2 0 0 1-11.2 11.2H112.29a11.2 11.2 0 0 1-11.2-11.2V93.74a11.2 11.2 0 0 1 11.2-11.2h189.06a11.2 11.2 0 0 1 11.2 11.2zM298.03 97.65a.44.44 0 0 0-.44-.44H116.31a.44.44 0 0 0-.44.44v112.38a.44.44 0 0 0 .44.44h181.28a.44.44 0 0 0 .44-.44z"/><path fill="#fecf00" d="M190.73 129.72a.37.37 0 0 0-.71-.06q-3.45 8.78-6.89 18.47c-1.35 3.82-3.09 9.35-7.13 9.44q-6.4.16-37.15.05a4.64 4.64 0 0 1-4.63-4.64v-.53a4.05 4.05 90 0 1 4.04-4.05h32.75a2.5 2.5 11.4 0 0 2.33-1.54q5.53-12.98 11.17-28.09c1.45-3.9 4.22-11.06 9.45-7.76 2.81 1.78 4.14 9.65 4.85 13.42 1.47 7.85 3.94 16.76 5.58 23.82q4.1 17.61 6.11 27.24.31 1.5 1.14 2.56a.32.32 0 0 0 .55-.1q7.36-21.97 16.77-47.23c.99-2.66 3.67-3.5 6.08-1.53q1.72 1.41 3.46 6.36l3.91 11.13a2.6 2.6 0 0 0 2.42 1.72h30.93a4 4 0 0 1 3.96 4.46l-.05.38a4.85 4.83 2.5 0 1-4.79 4.38q-11.42.07-33.63-.02-1.75 0-2.67-.34c-2.78-1.03-4.7-7.86-5.66-10.49a.28.28 0 0 0-.53 0q-8.1 23.02-16.53 46.3c-.6 1.67-2.14 3.64-4.15 3.96-4.58.75-5.57-3.31-6.57-7.16q-4.35-16.65-6.91-27.67c-2.9-12.51-5.51-21.6-7.5-32.48M83.61 246.59l10.21-13.32a7.6 7.6 0 0 1 6.02-2.97h214.03a7.6 7.6 0 0 1 6.02 2.97l10.21 13.32a7.59 7.59 0 0 1-6.02 12.21H89.63a7.59 7.59 0 0 1-6.02-12.21m144.29-1.99a2.8 2.8 0 0 0-2.83-2.81l-37.78.06a2.8 2.8 0 0 0-2.81 2.83v.54a2.8 2.8 0 0 0 2.83 2.81l37.78-.06a2.8 2.8 0 0 0 2.81-2.83zm-77.65 82.2a.24.24 0 0 0-.4-.12q-5.68 5.62-13.88 3.32c-6.09-1.71-6.62-7.15-5.89-12.49q1.97-14.28 5.17-28.28c.48-2.08 1.06-4.34 2.38-6.07q6.76-8.82 18.05-6.63c4.21.82 8.58 3.91 9.32 8.29.37 2.16.15 7.06-.63 9.61a1.1 1.09-81.3 0 1-1.04.77h-8.49a.94.94 0 0 1-.9-1.22c.85-2.72 2.01-7.1-.94-8.57-3.04-1.52-6.79 1.42-7.34 4.25q-.58 2.97-5.64 27.65a4.02 4.02 0 0 0 3.94 4.82h.48a5.4 5.4 5.7 0 0 5.27-4.31l1.27-6.27a.57.57-84.1 0 0-.55-.68h-2.75a1.23 1.22-84.2 0 1-1.2-1.47l1.17-5.77a1.7 1.7 0 0 1 1.65-1.35h12.66a1.06 1.05 5.6 0 1 1.04 1.26l-5.07 24.98a.98.97 5.3 0 1-.96.79h-5.46a.91.9-5.8 0 1-.89-.72zm107.19-14.13q-.99 3.18-.72 7.34.15 2.19 2.29 2.27c7.44.27 9.47-8.46 4.37-12.65-3.29-2.71-8.48-5.83-10.41-9.25-2.24-3.95-1.74-8.49-.62-12.87 1.79-6.95 6.67-11.02 14.14-11.38 7.24-.35 14.77 3.61 14.61 11.62q-.05 2.24-.5 5.01a1.74 1.73 5.8 0 1-1.78 1.45l-7.66-.31a.7.7 0 0 1-.6-1c.67-1.4 1.05-5.67-.52-7.25q-1-1-3.17-.88-3.13.18-4.15 3.62c-1.45 4.9-.36 7.97 3.83 10.96 4.1 2.92 8.92 6.41 9.29 11.71.33 4.74-.05 8.83-2.79 12.61-4.38 6.03-14.26 8.84-21.38 5.34-6.3-3.08-6.55-11.01-4.04-16.77a1.35 1.34 12.5 0 1 1.28-.81l7.88.32a.7.7 0 0 1 .65.92m-16.29-6.74q-2.01 10.52-2.2 11.32c-1.75 7.62-7.38 12.48-15.14 13.12-6.61.55-14.25-1.06-15.4-8.38q-.58-3.66.57-9 2.09-9.72 2.58-12.25 1.99-10.53 2.18-11.33c1.75-7.62 7.38-12.48 15.14-13.12 6.61-.55 14.25 1.06 15.4 8.38q.58 3.66-.57 9-2.09 9.72-2.56 12.26m-19.65-3.16q-.96 4.69-2.24 11.97-.49 2.76-.07 5.16a2.87 2.79-89.9 0 0 2.24 2.32c4.78.9 6.53-2.37 7.45-6.26q1.01-4.29 2.45-11.34.96-4.7 2.25-11.98.49-2.76.07-5.16a2.87 2.79-89.9 0 0-2.24-2.32c-4.78-.9-6.53 2.37-7.45 6.26q-1.02 4.3-2.46 11.35M33.77 328.35l10.17-50.15a1.23 1.22-84.2 0 1 1.2-.99q5.19 0 12.71.06 7.41.06 10.29 2.18c5 3.69 4.24 8.41 2.92 14.54q-2.3 10.71-4 20.54c-1.44 8.33-5.24 14.18-14.33 14.63q-9.79.49-18.25.1a.77.76 7.5 0 1-.71-.91m12.39-8.45a1.54 1.54 0 0 0 1.85 1.93l4.55-1.11a4.7 4.7 0 0 0 3.44-3.56q4.09-19.41 4.97-25.16.42-2.75-.2-4.19a2.99 2.97 79.6 0 0-2.61-1.81l-4.32-.18a.88.87 9.2 0 0-.88.63c-3.89 13.09-5.3 28.41-6.8 33.45m36.95-42.84 8.46.34a.93.93 0 0 1 .87 1.11l-10.19 50.27a.93.93 0 0 1-.95.75l-8.45-.34a.93.93 0 0 1-.87-1.11l10.18-50.27a.93.93 0 0 1 .95-.75m27.06.26h12.32a.9.9 0 0 1 .91.91v50.26a.9.9 0 0 1-.91.91h-8.82a.9.9 0 0 1-.91-.95l.33-8.45a.9.9 0 0 0-.91-.95h-8.24a.9.9 0 0 0-.85.58l-3.57 9.1a.9.9 0 0 1-.85.58h-8.21a.9.9 0 0 1-.85-1.24l19.71-50.17a.9.9 0 0 1 .85-.58m3.8 12.86c-3.54 6.02-5.03 11.86-7.6 20.41a.7.7 0 0 0 .67.89l5.33-.12a1.1 1.1 0 0 0 1.06-1.04l.8-20.07a.14.14 0 0 0-.26-.07m77.43 19.97a.21.21 0 0 0 .42.02l6.41-31.6a1.6 1.6 0 0 1 1.58-1.29h6.69a1.24 1.24 0 0 1 1.22 1.49l-10.13 50a.8.8 0 0 1-.75.61h-9.28a1.63 1.63-3.6 0 1-1.62-1.42l-3.92-31.09a.52.52 0 0 0-1.03.03q-.25 3.67-.82 6.49-3.16 15.43-4.9 24.8a1.46 1.46 0 0 1-1.44 1.2h-6.98a1.15 1.15 0 0 1-1.13-1.38l10.13-49.96a.97.96-84.1 0 1 .94-.77h9.14a1.5 1.5 0 0 1 1.49 1.32zm102.63-24.14h-6.24a1.16 1.16 0 0 1-1.14-1.39l1.29-6.37a1.16 1.16 0 0 1 1.14-.93h26.11a1.16 1.16 0 0 1 1.14 1.39l-1.37 6.76a1.16 1.16 0 0 1-1.07.93l-7.34.41a1.16 1.16 0 0 0-1.07.93l-8.25 40.74a1.16 1.16 0 0 1-1.14.93h-8.02a1.16 1.16 0 0 1-1.14-1.39l8.24-40.62a1.16 1.16 0 0 0-1.14-1.39m38.72 13.45 8.63-20.84a2.35 2.33-77.4 0 1 2.26-1.45l7.73.31a.53.52-80.3 0 1 .48.69q-.76 2.29-1.95 4.74-6.33 13.05-12.98 26.02c-3.28 6.38-4.15 12.38-5.35 19.82a.88.87 5.5 0 1-.9.73l-8.86-.35a.7.7 0 0 1-.64-.88 58 58 0 0 0 1.92-23.8q-1.54-13.67-3.42-25.8a1.34 1.33-3.4 0 1 1.37-1.54l8.35.34a1.6 1.6 0 0 1 1.55 1.51l1.13 20.39a.35.35 0 0 0 .68.11m31.92-2.53a.46.46 0 0 0 .83.34l11.9-18.58a3.39 3.38 17.3 0 1 2.97-1.55l7.39.3a1 .99 17.5 0 1 .8 1.53q-5.47 8.59-12.05 18.04c-1.55 2.22-2 3.53-1.37 6.33 1.37 6.09 2.44 12.16 4.16 18.07q1.27 4.37 1.78 7.65a.42.41-3.4 0 1-.43.48l-9.74-.39a.96.95-4.6 0 1-.9-.76l-3.52-17.07a.77.77 0 0 0-1.28-.42q-3.26 2.99-4.2 6.83-.43 1.77-2.22 11.19a.78.77-83 0 1-.79.63l-9.1-.36a.78.77-83 0 1-.72-.93l10.07-49.7a1.77 1.76 6.9 0 1 1.8-1.41l7.55.3a.86.86 0 0 1 .81 1.03zM407.35 319h-8.17a.9.9 0 0 0-.88.63l-3.01 9.13a.9.9 0 0 1-.88.63h-8.49a.92.92 0 0 1-.86-1.26l19.77-50.31a.9.9 0 0 1 .86-.58h11.76a.9.9 0 0 1 .92.92v50.44a.9.9 0 0 1-.92.92h-8.26a.9.9 0 0 1-.92-.92v-8.68a.9.9 0 0 0-.92-.92m2.13-29.3a.14.14 0 0 0-.28-.05l-7.44 20.73a.7.7 0 0 0 .63.92l5.03.21a1.2 1.2 0 0 0 1.24-1.15zM64.91 363.14q1.72-9.38 1.88-10.09c1.52-6.8 6.52-11.16 13.43-11.77 5.88-.52 12.7.88 13.76 7.39q.53 3.26-.47 8.02-1.81 8.67-2.21 10.94-1.75 9.38-1.91 10.09c-1.52 6.8-6.51 11.16-13.42 11.76-5.89.53-12.7-.87-13.76-7.39q-.54-3.25.46-8.01 1.82-8.67 2.24-10.94m19.7-9.28a4.05 4.05 0 0 0-3.2-4.75l-.22-.05a4.05 4.05 0 0 0-4.75 3.2l-4.9 24.98a4.05 4.05 0 0 0 3.2 4.75l.2.05a4.05 4.05 0 0 0 4.76-3.2zm218.22 9.09q1.85-9.39 2.02-10.1c1.62-6.8 6.68-11.11 13.61-11.63 5.91-.45 12.72 1.04 13.7 7.59q.5 3.27-.56 8.03-1.94 8.67-2.36 10.94-1.87 9.38-2.04 10.09c-1.62 6.8-6.68 11.1-13.61 11.63-5.91.44-12.73-1.04-13.71-7.59q-.49-3.27.57-8.03 1.93-8.67 2.38-10.93m20.08-9a4.1 4.1 0 0 0-3.15-4.91l-.21-.05a4.1 4.1 0 0 0-4.9 3.15L309.23 377a4.1 4.1 0 0 0 3.15 4.9l.21.05a4.1 4.1 0 0 0 4.9-3.15zm-279.2 17.62c-2.43 2.83-3.4 3.99-4.14 7.92q-1.26 6.71-1.35 7.94a1.68 1.67 2.4 0 1-1.67 1.53h-6.59a1.3 1.3 0 0 1-1.26-1.54l9.02-44.51a1.04 1.04 0 0 1 1.02-.83h7.52a.79.78-83.3 0 1 .76.97l-3.91 16.37a.36.35.4 0 0 .43.43q.79-.19 1.11-.72 4.5-7.54 10.76-16.74a.71.68-72.7 0 1 .58-.32h7.94a.7.69-72.5 0 1 .56 1.09q-2.74 3.97-10.98 16.61c-2.47 3.79-1.56 5.56-.59 9.88q1.38 6.14 4.22 17.52a1.35 1.34-7 0 1-1.31 1.67h-6.54a1.8 1.78-5.7 0 1-1.76-1.43l-3.24-15.69a.33.33 0 0 0-.58-.15m85.59-13.53q-1.48 2.52-1.92 3.65-3.6 9.2-10.51 25.99a2 2 0 0 1-1.8 1.2h-4.56a1.13 1.13 0 0 1-1.13-1.1l-.67-30.16a.2.2 0 0 0-.21-.2h-.32l-.01.01-5.82 30.25a1.52 1.51-84.4 0 1-1.48 1.23h-6.25a.83.82-84.2 0 1-.8-.99l9.09-44.85a1.2 1.2 0 0 1 1.2-.98h10.3a1.34 1.33-.7 0 1 1.34 1.3l.59 26.72a.3.29-34.8 0 0 .57.1l10.99-26.57a2.5 2.5 0 0 1 2.3-1.53h10.09a.93.92 5.8 0 1 .91 1.11l-9 44.43a1.51 1.5 5 0 1-1.44 1.2l-5.39.12a1.1 1.1 0 0 1-1.12-1.31q2.67-14.36 5.47-27.16.25-1.13 0-2.39a.23.23 0 0 0-.42-.07m11.76 30.95a1.64 1.64 0 0 1-1.64-1.95q3.99-20.64 4.53-22.84 2.12-8.67 3.62-18.33.16-1.02 1.07-3.27a1.02 1.01 11.3 0 1 .96-.63l14.77.35a2.68 2.28 49.6 0 1 .62.1c9.62 2.87 7.05 12.48 5.06 19.9-2.16 8.07-9.94 11.89-17.81 11.11a.76.75-81.1 0 0-.81.6l-2.65 13.1a2.18 2.17 5.2 0 1-2.08 1.73zm15.31-39.69-2.98 15.19a.23.23 0 0 0 .18.27l1.87.37a5.32 5.1-78.9 0 0 6.03-4.24l1.02-5.2a5.32 5.1-78.9 0 0-3.98-6.21l-1.87-.36a.23.23 0 0 0-.27.18m49.84-7.01a.45.44-84.3 0 1 .42.52q-2.96 16.8-7.32 36.55c-1.96 8.92-12.48 11.97-20.08 9.56-6.89-2.2-7.59-7.78-6.13-14.33q3.96-17.77 6.29-31.38a1.54 1.53 6 0 1 1.57-1.27l7.12.28a.91.9-83.2 0 1 .85 1.09l-7.06 35.19a3.06 3.05-88.5 0 0 3.44 3.63l.16-.02a5.85 5.85-88.2 0 0 4.92-4.62l7.11-34.86a.8.8 0 0 1 .84-.65zm28.8 7.56h-6.65a.9.9 0 0 0-.91.75l-7.61 37.53a.9.9 0 0 1-.91.75h-7.64a.93.93 0 0 1-.91-1.11l7.44-36.78a.93.93 0 0 0-.91-1.11h-6.59a.93.93 0 0 1-.9-1.15l1.41-5.89a.9.9 0 0 1 .9-.71h24.47a.93.93 0 0 1 .91 1.12l-1.19 5.86a.9.9 0 0 1-.91.74m14.12 11.52h10.46a1.05 1.05 0 0 1 1.03 1.26l-1.17 5.75a1.09 1.08-84.1 0 1-1.06.87h-11.01a.79.78 5.9 0 0-.77.62l-2.07 10.2a.7.7 0 0 0 .69.84h11.59a1.12 1.12 0 0 1 1.1 1.34l-1.1 5.45a1.48 1.47 5.7 0 1-1.45 1.18h-21.39a.5.5 85.7 0 1-.46-.4q-.17-1.11.25-2.98 4.53-20.56 6.73-32.98.61-3.46 2.24-9.9a.66.65 6.7 0 1 .64-.5h21.07a1.13 1.13 0 0 1 1.11 1.35l-1.08 5.33a1.3 1.3 0 0 1-1.28 1.05h-11.7a1.06 1.06 0 0 0-1.04.85l-2 9.85a.7.7-84.4 0 0 .67.82m39.72 8.77 3.6 17.45a1.18 1.18 0 0 1-1.21 1.41l-6.73-.27a1.8 1.8 0 0 1-1.68-1.46q-1.3-7.23-2.45-14.13-.4-2.42-2.88-1.97a1.12 1.11.3 0 0-.89.87l-3.19 15.75a1.53 1.52-83.1 0 1-1.55 1.22l-6.94-.28a1.14 1.13 6.9 0 1-1.07-1.36l8.99-44.36a1.11 1.1 6.2 0 1 1.11-.89q3.2.06 11.45-.02 6.22-.06 8.81 1.77c5.24 3.71 3.81 10.79 2.36 16.47q-1.25 4.85-7.35 8.9a.88.86-23 0 0-.38.9m-7.89-19.72-2.45 12.06a1.87 1.87 0 0 0 2.76 1.99l3.75-2.17a6 6 0 0 0 3.01-4.98l.2-5.08a1.93 1.92-81.2 0 0-1.42-1.95q-2.6-.71-5.38-.32a.6.6 0 0 0-.47.45m85.28 22.7q1-1.59 1.63-3.52 4.38-13.54 7.96-26.16a2.04 2.03-80.8 0 1 2.04-1.48l7 .28a.82.82 0 0 1 .74 1.1l-16 44.62a1.72 1.71-78.8 0 1-1.68 1.13l-8.91-.36a.83.82-89.6 0 1-.79-.81q-.29-12.98.93-27.41.1-1.16-.23-2.17a.2.19-44.7 0 0-.37 0l-9.85 29.88a1.23 1.22-79.8 0 1-1.2.84l-9.39-.38a1.2 1.2 0 0 1-1.14-1.15c-.21-7.26.94-15.42 1.01-23.34q.1-10.42.06-20.58a1.68 1.67-88.9 0 1 1.74-1.68l6.69.27a1.5 1.5 0 0 1 1.42 1.59l-2.31 28.86a.46.46 0 0 0 .89.19l10.62-29.61a1.9 1.88-78.9 0 1 1.86-1.26l7.64.3a.75.75 0 0 1 .72.78l-1.2 30.04a.07.06-29.8 0 0 .12.03m40.9 15.82-7.53-.1a.8.8 0 0 1-.79-.82l.13-7.83a.7.7 0 0 0-.72-.73h-7.66a.54.54 0 0 0-.52.37l-2.5 7.55a1.96 1.94 8.6 0 1-1.82 1.33l-6.77.08a.88.88 0 0 1-.83-1.21l17.47-44.16a2.03 2.01 10.3 0 1 1.86-1.27l9.7-.07a.8.8 0 0 1 .83.83l-.05 45.23a.8.8 0 0 1-.8.8m-7.12-35.59a.13.13 0 0 0-.26-.05l-6.87 18.92a.63.63 0 0 0 .57.84l4.59.21a1.1 1.1 0 0 0 1.14-1.04z"/></svg>