<svg xmlns="http://www.w3.org/2000/svg" version="1.1" viewBox="0 0 472 469"><path fill="#ffd000" d="M85.65 219.27a.83.82-76.3 0 1-.74-1.22q5.3-9.8 36.12-67.22 4.84-9.01 2.36-19.74c-1.24-5.36-4.93-10.14-6.53-16.08q-4.39-16.25.65-31.06c7.43-21.83 26.03-36.16 48.97-38.22q4.03-.36 8.6.55a.6.6 0 0 1 .44.81c-2.13 5.23-5.02 9.69-7.68 14.87q-10.05 19.63-13.21 25.68c-2 3.83-2.37 6.54-.08 10.48q4.68 8.09 11.2 19.66a2.71 2.67-86 0 0 .71.83q2.21 1.73 4.91 1.77 13.79.17 26.58-.1c6.56-.14 10.2-4.93 12.85-10.22q13.78-27.48 14.12-28.12c5.19-9.72 7.85 4.49 8.38 7.31 5.14 27.41-7.04 52.1-31.98 64.33q-6.42 3.14-9.57 3.66c-12.78 2.12-22.72 6.54-29.25 18.53q-10.62 19.54-20.87 40.6-.74 1.52-2.22 2.51a.63.61-61.4 0 1-.35.11l-16.14.27a.67.67 0 0 1-.62-.96c5.09-10.86 11.39-21.79 21.64-40.59 2.47-4.53 5.85-10.9 3.71-15.84q-2.05-4.75-7.14-4.72c-6.01.03-7.49 3.35-10.39 8.64q-16.13 29.42-27.81 52.3a1.72 1.71-76.8 0 1-1.49.93z"/><path fill="#ffd000" d="M242.13 126.94a.52.52 0 0 1-.7-.68q5.18-11.09 5.54-22.83a1.11 1.09-14.9 0 1 .53-.9c3.74-2.27 6.82-1.39 8.19-6.84q.1-.39 2.3-11.2.44-2.12 1.33-3.59a3.74 3.73-74.6 0 1 3.15-1.79q4.65-.04 20.54-.37 3.68-.07 4.66 3.34 1.66 5.75 2.25 13.19c.16 1.98 1.46 3.54 3.53 4.23q6.66 2.24 13.05 6c2.68 1.58 4.68 1.3 7.24-.25q2.24-1.36 8.01-5c3.17-2 5.12-1.64 7.87.91q7.29 6.77 13.47 13.41a2.14 2.14 0 0 1 .24 2.6q-1.84 2.91-8.53 12.64c-1.38 2.02-1.24 3.74-.06 6.06q2.84 5.6 4.49 12.91a3.22 3.19 4.7 0 0 1.93 2.26q5.43 2.18 12.8 4.49c2.7.84 4.02 1.56 4 4.79q-.11 14.12-.3 15.62c-.34 2.73-.58 5.31-3.87 6.13q-6.44 1.61-12.04 3.17-3.4.95-4.57 4.16-2.34 6.43-5.98 14.18a2.97 2.96-47 0 0 .09 2.69l6.23 11.24a1.21 1.2-31.2 0 1-.4 1.6q-.14.09-1.31.06-.89-.02-130.06.01-3.08 0-4.41-.18a.8.8 0 0 1-.58-1.23q2.11-3.46 6.55-10.45c1.79-2.81 1.62-4.78.23-8.13l-4.4-10.58c-2.84-6.78-18.2-4.27-21.21-12.52q-1.66-4.54 3.27-5.43c14.29-2.6 26.73-7.58 37.61-17.52a.44.43-17.2 0 1 .73.38c-.71 4.85-1.93 11.47-1.33 17.01q.87 8.08 2.02 11.27 7.87 21.92 29 30a50 50 0 0 0 52.67-10.6c10.85-10.37 17.31-25.7 14.85-40.94q-3.97-24.61-25.81-37.46-1.55-.91-7.1-2.99c-12.65-4.73-26.97-3.28-38.63 2.75-2.53 1.31-4.86 3.29-7.08 4.38m-57.27 130.67q.91-4.45.86-6.84c-.11-4.44-5.17-3.95-7.97-2.64a1.83 1.77-89 0 0-.85.85q-1.46 3.11-2.01 6.72-2.05 13.41-4.11 24.51c-.82 4.39 2.84 7.01 6.79 4.99 3.32-1.69 3.34-5.38 4.2-9.87a1.46 1.46 0 0 1 1.41-1.19l9.13-.15a1.33 1.33 0 0 1 1.35 1.44c-.68 8.73-4.77 17.67-14.43 19.2q-6.41 1.01-12.68-.17c-6.26-1.19-8.79-7.67-7.85-13.51q1.67-10.37 4.25-23.73c1.07-5.5 1.73-10.17 4.8-13.81 5.14-6.11 14.62-7.13 21.84-5.25q9.29 2.42 8.68 11.85-.27 4.15-.93 6.96a1.86 1.86 0 0 1-1.78 1.42l-9.91.17a.8.79-85 0 1-.79-.95m123.36 11.05a.23.22-48.7 0 0 .43-.03q3.39-14.66 4.83-28.36.23-2.13 2.51-2.11 7.44.08 8.37.11a.7.7 0 0 1 .63.8l-9.86 54.23a1.09 1.08-84.1 0 1-1.09.89l-10.78-.26a.76.75 85.9 0 1-.73-.64l-5-30.42a.1.1 0 0 0-.18-.03q-1.18 2.05-1.51 4.46-1.68 12.25-5.05 26.34a.72.71-82.3 0 1-.7.54l-9.06-.22a.73.73 0 0 1-.7-.86l9.7-53.36a2 2 0 0 1 2.03-1.62q2.09.08 8.2.08 2.08-.01 2.48 2.1 2.31 11.92 4.25 23.95.29 1.76 1.23 4.41m-223.97-6.43a.25.25 0 0 0-.49.01l-5.61 30.86a1.23 1.22-85.4 0 1-1.18 1.01l-8.46.14a1.18 1.18 0 0 1-1.18-1.4q4.43-23.25 9.53-52.18.43-2.44 2.89-2.42 7.97.06 11.73-.03a1.36 1.35-1.5 0 1 1.39 1.31q.38 12.43.2 28.71-.02 1.33.43 2.17a.61.6-49 0 0 1.1-.08l11.93-31.2a1.14 1.12 9.8 0 1 1.05-.73l14.66-.25a1.2 1.19 5.1 0 1 1.19 1.42l-10.4 53.99a.56.56 0 0 1-.54.46l-9.9.16a.7.69 5 0 1-.7-.83l6.23-32.34a.35.35-28.6 0 0-.66-.19l-13.26 31.7a2.4 2.4 0 0 1-2.16 1.47l-5.58.09a1.04 1.03 89.2 0 1-1.05-1.03q-.12-12.44-.26-21.55-.08-5.34-.9-9.27m48.41-23.8 25.72-.44a1.18 1.18 0 0 1 1.17 1.41l-1.63 8.46a1.2 1.2 0 0 1-1.14.96l-14.09.23a1.2 1.2 0 0 0-1.14.96l-1.93 10.02a1.18 1.18 0 0 0 1.17 1.41l11.74-.21a1.18 1.18 0 0 1 1.18 1.41l-1.54 7.97a1.2 1.2 0 0 1-1.14.96l-12.15.19a1.2 1.2 0 0 0-1.14.96l-1.91 9.92a1.18 1.18 0 0 0 1.18 1.41l12.6-.22a1.18 1.18 0 0 1 1.18 1.41l-1.52 7.86a1.2 1.2 0 0 1-1.14.96l-25.78.44a1.18 1.18 0 0 1-1.17-1.41l10.34-53.7a1.2 1.2 0 0 1 1.14-.96M230.82 294l-10.2.17a.9.9 0 0 1-.9-1.06l3.88-21.36a.9.9 0 0 0-.9-1.06l-8.01.14a.9.9 0 0 0-.87.74l-3.95 21.69a.9.9 0 0 1-.87.74l-10.46.18a.9.9 0 0 1-.9-1.06l9.83-54.07a.9.9 0 0 1 .87-.74l10.53-.18a.9.9 0 0 1 .9 1.06l-3.76 20.73a.9.9 0 0 0 .9 1.06l7.76-.13a.9.9 0 0 0 .87-.74l3.83-21a.9.9 0 0 1 .87-.74l10.37-.17a.9.9 0 0 1 .9 1.06l-9.82 54a.9.9 0 0 1-.87.74m28.35-55.61 14.08-.24a.85.85 0 0 1 .86.84l.92 54.14a.85.85 0 0 1-.84.86l-10.04.18a.85.85 0 0 1-.86-.84l-.18-9.94a.85.85 0 0 0-.86-.84l-8.88.16a.85.85 0 0 0-.79.57L249 293.45a.85.85 0 0 1-.79.57l-9.68.16a.85.85 0 0 1-.81-1.15l20.67-54.09a.9.9 0 0 1 .78-.55m4.59 13a.33.32 46.1 0 0-.61-.01L256.04 272a.86.86 0 0 0 .79 1.14l5.59.09a1 1 0 0 0 1.03-1q.06-8.7.61-17.46.12-2.02-.3-3.38m71.4 42.64-11.08.19a.78.78 0 0 1-.78-.92l9.88-54.33a.8.8 0 0 1 .75-.64l11.09-.19a.78.78 0 0 1 .78.92l-9.89 54.33a.8.8 0 0 1-.75.64m28.15-33.76q4.9-6.95 11.49-19.16 1.01-1.87 3.21-2.72a1.04 1-54.4 0 1 .37-.07l9.76-.01a.54.54 0 0 1 .45.83l-15.65 24.14a1.5 1.48-35.6 0 0-.2 1.16l6.81 28.31a1.02 1.02 0 0 1-.97 1.26l-9.74.16a1.37 1.36 82.6 0 1-1.35-1.04l-4.25-17.67a.68.68 0 0 0-1.14-.32q-2.2 2.17-2.95 5.01-1.75 6.56-2.35 13.01a.94.92 1.7 0 1-.91.84l-10.79.18a.88.88 0 0 1-.88-1.04l9.7-53.34a1.76 1.75-85.2 0 1 1.7-1.44l9.91-.17a.6.6 0 0 1 .6.63c-.45 7.76-2.4 15.91-3.28 21.26a.26.25 67.2 0 0 .46.19m20.77 33.91a.66.66 0 0 1-.63-.91q6.61-16.76 20.38-52.44.99-2.56 2.35-2.52c3.65.1 6.61-.1 13.35-.09a1.2 1.2 0 0 1 1.21 1.2l.91 54.07a.49.48-1.2 0 1-.48.49l-10.7.18a1.09 1.08-.8 0 1-1.1-1.06l-.16-9.96a.6.6 0 0 0-.61-.59l-9.09.15a1.09 1.08 9.1 0 0-.99.71l-3.34 9.5a1.68 1.67 9.3 0 1-1.55 1.11zM409 252.7l-.03.07-7.04 19.96a.33.33 0 0 0 .3.44l7.09.17a.33.33 0 0 0 .34-.32l.5-20.99a.33.33 0 0 0-.6-.18zm-275.63 79.78q-.21 1.47-1.91 10.45-2.35 12.48-14.92 14.35-7.27 1.08-13.32-1.31c-6.35-2.51-6.5-9.3-5.25-15.17q1.42-6.72 2.4-13.47.23-1.47 1.93-10.46 2.35-12.48 14.92-14.35 7.27-1.08 13.32 1.31c6.35 2.51 6.5 9.3 5.25 15.17q-1.42 6.72-2.42 13.48m-16.05-20.27a3.6 3.6 0 0 0-2.66 2.82l-5.26 28.88a3.55 3.55 0 0 0 4.33 4.09l2.77-.67a3.6 3.6 0 0 0 2.66-2.82l5.26-28.88a3.55 3.55 0 0 0-4.32-4.09zm168.14 15.12q.24-1.47 1.96-10.45 2.39-12.47 14.97-14.3 7.27-1.06 13.31 1.35c6.34 2.53 6.47 9.32 5.21 15.19q-1.45 6.71-2.47 13.46-.22 1.47-1.94 10.45-2.39 12.47-14.97 14.3-7.27 1.06-13.31-1.35c-6.35-2.53-6.47-9.32-5.21-15.19q1.44-6.71 2.45-13.46m23.58-10.25a4.53 4.53 0 0 0-3.66-5.26l-.27-.05a4.53 4.53 0 0 0-5.26 3.65l-4.93 27.36a4.53 4.53 0 0 0 3.66 5.26l.27.05a4.53 4.53 0 0 0 5.26-3.65zm-139.19-13.13c-1.7 12.19-4.23 23.42-6.52 37.6-1.11 6.89-4.47 13.51-11.64 15.37q-7.36 1.9-13.63-1.7c-5.04-2.89-4-11.03-2.72-15.77a1.6 1.6 0 0 1 1.51-1.18l8.55-.14a.7.69-85.6 0 1 .7.82l-1.24 6.82a1.97 1.97 0 0 0 2.14 2.31l.34-.04a4.07 4.05-87.7 0 0 3.57-3.31l7.3-40.15a1.62 1.61-85.2 0 1 1.56-1.33l9.32-.16a.76.76 0 0 1 .76.86m19.5 41.81-8.58.15a.54.53 9 0 0-.51.36l-3.42 9.71a1.02 1.01-80.4 0 1-.94.67l-9.62.16a.85.85 0 0 1-.8-1.16q10.08-25.57 19.06-50.28c.6-1.66 2.08-2.33 3.89-2.25q5.29.24 11.12.05a1.26 1.26 0 0 1 1.3 1.24l.87 51.44a.8.8 0 0 1-.79.81l-9.83.16a.86.86 0 0 1-.88-.85l-.16-9.52a.71.7 88.8 0 0-.71-.69m1.59-30.38a.33.32 46.5 0 0-.62-.02l-7.31 20.72a.87.86-79.6 0 0 .79 1.15l5.63.13a1 1 0 0 0 1.04-1q.13-8.76.74-17.58.14-2.03-.27-3.4m52.98-11.29q-.26 5.13-2.38 8.46-9.29 14.59-20.8 32.85a.65.65 0 0 0 .56 1l13.68-.23a1.22 1.21-85.5 0 1 1.21 1.43l-1.32 7.27a1.2 1.19 4.8 0 1-1.15.97l-26.91.45a1 1 0 0 1-1.01-1.19l1.18-6.49a2.87 2.79-24.2 0 1 .42-1.06l21.6-33.32a.62.61 15.9 0 0-.53-.95l-13.33.22a.94.94 4.8 0 1-.94-1.1l1.38-7.6a1.72 1.71 4.7 0 1 1.67-1.41l25.57-.43a1.08 1.07 1 0 1 1.1 1.13M56.14 356.87a.5.5 0 0 1-.51-.61l9.43-51.85a1.5 1.5 0 0 1 1.47-1.23q15.46-.02 21.1.2 2.17.09 5.22 1.98 4.56 2.81 4.05 8.42-.5 5.62-2.22 11.65c-3.33 11.68-12.21 11.49-22.67 11.33a.55.54 5.5 0 0-.55.45l-3.42 18.78a.84.83-85.4 0 1-.81.69zm20.44-44.21a.7.7 0 0 0-.67.55l-2.38 13.05a1.92 1.92 0 0 0 2.2 2.23l3.49-.57a4.4 4.4 0 0 0 3.54-3.12q1.96-6.58 1.59-10.81a1.29 1.28-1.7 0 0-1.25-1.17zm164.95 43.37a.74.73 5.3 0 1-.72-.86l9.21-50.61a1.6 1.6 0 0 1 1.55-1.32q10.48-.19 19.66.28c.96.04 2.55.72 4.1 1.26 5.79 2.03 5.93 7.85 5.24 13.29q-1.25 9.79-4.82 25.94c-1.98 8.93-7.91 11.85-16.71 12q-7.47.13-17.51.02m13.49-8.6c4.44-.07 7.94.38 9.12-5.07q2.34-10.71 4.8-26.62a2.6 2.6 5.1 0 0-2.5-2.97l-4.11-.1a2.1 2.1-84.1 0 0-2.11 1.72l-5.87 32.26a.67.66-85.7 0 0 .67.78m105.65-10.35q.96-1.48 1.02-1.68 4.82-15.58 10.48-31.24a1.62 1.6 10.5 0 1 1.56-1.06l9.37.22a.67.67 0 0 1 .61.91L364 355.81a1.7 1.7 0 0 1-1.63 1.09l-10.71-.25a1.1 1.1 0 0 1-1.06-1.12q.29-10.97 1.01-23.7.16-2.96-.5-4.52a.1.1 0 0 0-.19 0l-11.01 28.79a1.3 1.3 0 0 1-1.24.84l-11.86-.29a.8.8 0 0 1-.79-.82l1.22-51.29a1.5 1.5 0 0 1 1.56-1.48l10.03.24a.6.6 0 0 1 .57.52q.17 1.31.02 3.43-.91 13.72-1.59 22.88c-.2 2.6.02 4.99.01 7.5a.18.18 0 0 0 .35.06l11.72-33.25a2 2 0 0 1 1.98-1.37l7.72.18a1.3 1.3 0 0 1 1.26 1.3q-.09 11.91-1.08 28.71-.14 2.33.37 3.76a.29.29 0 0 0 .51.06m34.1-33.77 14.54-.24a.8.8 0 0 1 .81.79l.88 52.07a.8.8 0 0 1-.79.81l-10.53.18a.8.8 0 0 1-.81-.79l-.17-9.59a.8.8 0 0 0-.81-.79l-8.2.14a.8.8 0 0 0-.75.53l-3.43 9.73a.8.8 0 0 1-.74.53l-9.83.17a.8.8 0 0 1-.76-1.09l19.86-51.93a.8.8 0 0 1 .73-.52m4.67 12.73a.32.31 45.3 0 0-.6-.01l-6.62 20.13a.83.83 0 0 0 .78 1.09l5.43.01a.97.97 0 0 0 .99-.99q-.06-8.44.35-16.96.09-1.96-.33-3.27"/></svg>