<svg xmlns="http://www.w3.org/2000/svg" version="1.1" viewBox="0 0 473 473"><path fill="#ffd100" d="M188.52 88.64a1.15 1.15 0 0 0-1.19 1.15v7.4a1.3 1.3 0 0 0 1.33 1.3q9.85-.21 13.81.03c3.35.2 5.59 1.2 8.21 3.84q12.85 12.95 16.44 16.3 1.6 1.5 3.6 2.14a3.43 3.35 52.4 0 0 1.06.15q5.83-.13 17.78.18 4.6.12 7.51 2.73a2.08 2.02 69.4 0 0 1.06.5q2.37.34 5.23-.97 22.67-10.41 63.62-28.96c5.22-2.37 13.03-5.23 18.71-8.19q4.1-2.14 6.98 1.64 3.5 4.59 5.82 9.9 1.88 4.33-2.26 6.73c-7.61 4.41-11.52 8.54-18.51 15.55l-68.77 68.63c-5.4 5.39-10.95 6.05-19.13 6.06q-38.64.06-94.5-.07c-7.77-.02-13.53-1.12-18.75-6.01q-4.24-3.98-4.26-10.42-.07-21.02.05-46.56a1.6 1.58-80.1 0 0-1.04-1.5c-2.36-.87-4.85-1.39-7.07-2.31q-5.2-2.15-7.81-2.89c-6.38-1.81-11.24-4.26-17.12-6.11q-4.79-1.5-6.41-3.26c-3.18-3.45-3.2-8.04-1.4-12.37q5.46-13.08 10.44-27.05 2.66-7.46 10.4-4.78 9.96 3.44 17.82 4.67c3.86.6 5.52 2 7.42 5.1q1.21 1.97 8.65 16.09a2.2 2.2 0 0 0 1.91 1.15h18.95a.8.8 0 0 0 .79-.79v-8.01a.9.9 0 0 0-.93-.91c-7.13.15-16.6 1.05-15.34-9.65q.65-5.48 6.48-5.54 30.8-.32 41.35-.02 4.69.14 5.79 5 1.9 8.42-6.41 10.11-1.57.32-10.31.02m-56.21 24.98c.05-3.1-.72-9.17 1.35-12.52a.8.8 0 0 0-.03-.86q-2.67-3.71-5.12-6.97c-2.88-3.84-9.6-4.8-14.17-5.59a1.06 1.06 0 0 0-1.15.62l-7.46 17.14a.96.95 20.9 0 0 .58 1.29q14.89 4.92 22.97 7.25.66.19 2.43.21a.59.58 1 0 0 .6-.57m224.55 5.91q.39 0 1.04 1.15 3.1 5.48 17.95 33.78c5.73 10.93 7.42 23.19-1.42 33.03q-7.28 8.11-17.72 8.09t-17.68-8.16c-8.8-9.87-7.07-22.12-1.3-33.03q14.96-28.25 18.08-33.71.66-1.15 1.05-1.15M107.32 241.85l-11.18 34.63a1.21 1.19-81 0 1-1.14.84H82.38a.55.54-89 0 1-.54-.57l2.27-60.46a1 1 0 0 1 1.01-.98h9.62a.73.72 88.8 0 1 .72.7c.34 8.64-1.06 18.43-1.37 25.61q-.49 11.02-.72 15.79a.46.46 0 0 0 .86.25q.67-1.14 1.13-2.79 5.16-18.7 11.48-38.22a1.9 1.9 0 0 1 1.83-1.33h8.53a.7.7 0 0 1 .71.7q.07 9.78-.46 15.41c-.81 8.62-.65 14.48-1.31 23.31q-.09 1.18.32 1.99a.25.25 0 0 0 .46-.03q3.68-10.06 4.07-11.46 4.73-16.85 8.28-28.84a1.48 1.47-81.5 0 1 1.41-1.05h9.6a.62.62 0 0 1 .59.81l-19.27 59.72a1.9 1.9 0 0 1-1.8 1.31h-12.27a.8.8 0 0 1-.81-.86q.36-6.03.57-17.33c.09-4.51 1.71-11.86.72-17.1a.36.35 48.9 0 0-.69-.05m75.62-25.54-18.98 38.32a8.4 8-27.6 0 0-.7 2.06l-3.94 19.76a1.03 1.02 5.4 0 1-1.01.83h-9.66a.8.8 0 0 1-.77-.87q.57-4.92 3.27-18.58c.27-1.4.11-3.86-.19-5.53q-3.62-19.9-5.84-36.3a.55.55 0 0 1 .55-.62h10.86a.7.7 86.7 0 1 .68.61l2.62 23.63a.28.28 0 0 0 .43.2q1.13-.71 1.72-2.11 6.28-14.63 8.36-19.35c.93-2.1 1.66-2.97 4-2.98q4.55-.03 8.08.06a.6.6 0 0 1 .52.87m23.11 38.54a.14.13 42.5 0 0 .25-.01l13.74-38.2a2 2 0 0 1 1.84-1.29h13.58a.75.75 0 0 1 .74.88l-10.45 60.24a.9.9 0 0 1-.89.75h-8.77a.74.74 0 0 1-.73-.84q2.58-19.24 6.86-38.56a.66.66 0 0 0-.66-.8l-.29.06a.9.9 0 0 0-.7.59l-13.68 38.01a2.2 2.2 0 0 1-2.06 1.45h-6.69a.7.7 89.1 0 1-.68-.67q-.25-12.14-.33-30.96-.02-4.51-.59-8.96a.4.39-44.1 0 0-.78-.01l-6.51 40.02a.75.75 0 0 1-.74.63h-9.69a.5.5 0 0 1-.5-.59l9.77-60.09a1.34 1.33-85.1 0 1 1.31-1.11h15.1a.83.82-89.7 0 1 .82.84q-.27 22.65.58 38.11.01.2.15.51m39.14 22.38h-10.2a.78.78 0 0 1-.77-.91L244.69 216a.8.8 0 0 1 .77-.65h10.2a.78.78 0 0 1 .77.91l-10.47 60.32a.8.8 0 0 1-.77.65m80.83-26.27q1.62-5.22 1.85-6.81 1.78-12.04 4.78-28.15a.67.66 5.1 0 1 .66-.54h9.45a.83.83 0 0 1 .82.97l-10.33 59.56a1.54 1.53 4.9 0 1-1.52 1.27h-10.28a1.22 1.21 85.6 0 1-1.2-1.03l-5.42-35.22a.39.38 45.6 0 0-.76-.01l-6.14 35.39a1.04 1.03 5 0 1-1.02.85h-9.17a.66.65 4.8 0 1-.65-.76l10.43-60.12a1.2 1.2 0 0 1 1.2-1.01h10.96a1.3 1.3 0 0 1 1.31 1.2q1.13 12.43 3.29 24.88.59 3.38.69 4.79.34 4.39.54 4.78a.28.27 40.3 0 0 .51-.04m-58.65 15.14-3.41 10.54a.7.7 0 0 1-.68.5h-10.14a.72.72 0 0 1-.67-.96l21.55-59.89a.7.7 0 0 1 .68-.48h15.54a.7.7 0 0 1 .72.72v60.05a.7.7 0 0 1-.72.72h-10.39a.7.7 0 0 1-.72-.72v-10.26a.7.7 0 0 0-.72-.72h-10.36a.7.7 0 0 0-.68.5m11.57-10.09a.33.33 0 0 0 .34-.32l.94-24.89a.33.33 0 0 0-.56-.25l-.76.76a.3.3 0 0 0-.08.14l-7.71 23.85a.33.33 0 0 0 .31.43zm87.39 20.68-.2-10.53a.7.7 0 0 0-.69-.67l-10.27.19a.7.7 0 0 0-.63.45l-3.82 10.6a.7.7 0 0 1-.63.45l-10.41.18a.68.68 0 0 1-.66-.91l21.59-60a.7.7 0 0 1 .63-.45l15.47-.28a.7.7 0 0 1 .69.67l1.09 60.08a.7.7 0 0 1-.67.69l-10.8.2a.7.7 0 0 1-.69-.67m-.15-47.03-8.16 25.3a.75.75 0 0 0 .72.98h7.22a.49.48-90 0 0 .48-.49V229.7a.13.13 0 0 0-.26-.04m-80.45 50.6-7.28 4.55a1.26 1.25 26.9 0 1-.59.19l-3.26.16a.92.92 0 0 1-.7-1.57l4.12-4.12a1.26 1.25-67.3 0 1 .89-.37h6.49a.63.63 0 0 1 .33 1.16m-2.09 37.05c-.94 4.06-1.75 11.51-3.67 15.41q-3.56 7.17-12.19 8.6c-5.45.91-12.84.82-16.24-4.19q-1.61-2.37-1.13-7.99.41-4.7 1.06-8.2.94-5.07 2.1-10.03c.93-4.06 1.73-11.51 3.66-15.41q3.55-7.17 12.18-8.6c5.45-.91 12.84-.82 16.24 4.19q1.61 2.37 1.13 7.99-.41 4.7-1.06 8.2-.94 5.07-2.08 10.03M276 300.65a4.5 4.5 0 0 0-3.6-5.27l-.26-.04a4.5 4.5 0 0 0-5.26 3.6l-5.44 29.05a4.5 4.5 0 0 0 3.6 5.27l.26.04a4.5 4.5 0 0 0 5.26-3.6zm-110.41 6.31 6.15-.95a.9.9 0 0 1 1.01 1.11l-1.43 5.61a3.25 3.23 2.6 0 1-2.65 2.41l-3.86.6a1.86 1.84.8 0 0-1.54 1.48l-2.45 13.02a.76.76 0 0 0 .75.9h12a.2.2 7.6 0 1 .17.22l-2.33 9.22a.3.3 0 0 1-.28.21h-21.8a1 1 0 0 1-.95-.68q-.36-1.04.1-3.37 2.4-12.34 2.88-15.45a.97.97 0 0 0-.96-1.12h-1.5a.56.56 0 0 1-.54-.7l1.45-5.71a2.1 2.08-9.6 0 1 .9-1.25q2.63-1.69 2.87-2.71 2.58-11.04 3.79-21.18a1.7 1.7 0 0 1 1.68-1.49h8.67a.92.91 5.2 0 1 .9 1.08l-3.45 18.32a.37.36 1 0 0 .42.43m-53.08 33.92a1.04 1.04 0 0 1-1.02-1.22l8.81-50.78a1.89 1.88-85 0 1 1.87-1.57q6.84.06 17.84.6c6.49.32 9.65 5.09 9.4 11.39-.29 7.5-2.23 15.14-8.62 19.32-4.4 2.87-8.44 2.58-13.44 2.64a2 2 0 0 0-1.98 1.7l-2.74 16.88a1.24 1.24 0 0 1-1.22 1.04zm17.66-43.14-2.18 12.1a1.8 1.8 0 0 0 1.45 2.08l1.25.23a5.36 4.96-79.8 0 0 5.83-4.4l.91-5.08a5.36 4.96-79.8 0 0-3.93-6.15l-1.25-.23a1.8 1.8 0 0 0-2.08 1.45m81.6-10.58a.9.9 0 0 1 .81 1.31l-16.24 32.78a12.61 12.52-27.1 0 0-1.09 3.33l-2.65 15.27a1.09 1.08-85.3 0 1-1.07.91h-8.74a.95.95 0 0 1-.93-1.13q1.33-6.89 2.7-13.87.81-4.1.17-7.75-2.58-14.47-5-29.93a.75.75 0 0 1 .74-.87h9.48a.64.64 0 0 1 .64.57l2.02 18.16a1.02 1.02 0 0 0 1.95.29l7.58-17.39a2.8 2.8 0 0 1 2.56-1.68zm12.52 21.66q-.41.56-.3 2.02.04.6-.19 1.74-2.64 13.04-4.85 26.98a1.43 1.42 4.5 0 1-1.41 1.2h-7.48a.92.91-85 0 1-.9-1.08l8.88-51.2a1.56 1.55-84.9 0 1 1.53-1.29h9.87a.44.43 85.3 0 1 .43.37l4.84 31.42a.09.09 0 0 0 .17.01c2.43-6.61 3.28-13.97 5.46-27.93q.18-1.13.67-2.53a1.93 1.91 9.7 0 1 1.81-1.27h6.99a.95.95 0 0 1 .94 1.12l-8.94 51.56a.97.96-85 0 1-.95.8h-10.32a.85.85 0 0 1-.84-.72l-4.79-31.04a.35.35 0 0 0-.62-.16m97.81 13.53a.3.3 0 0 0 .58.02l10.79-33.42a1.8 1.8 0 0 1 1.68-1.25l8.18-.15a.99.98-80.5 0 1 .94 1.32l-18.4 51.15a1.4 1.4 0 0 1-1.28.91l-10.11.18a.75.74.3 0 1-.77-.77l1.16-30.79a.41.41 55 0 0-.79-.14l-9.84 30.48a1.4 1.4 0 0 1-1.29.96l-10.25.19a1.14 1.13 2.5 0 1-1.15-1.25q.69-6.82.72-12.29.16-24.08.13-38.93a1.1 1.09 89.5 0 1 1.07-1.1l8.73-.15a.89.88-.3 0 1 .91.89q-.05 6.13-.45 9.24-.56 4.31-.55 9.12.02 11.16-.81 17.79a.33.33 0 0 0 .64.14l11.56-35.82a1.64 1.63-81.5 0 1 1.53-1.14l7.39-.13a1.08 1.07 83.5 0 1 1.07.86q.37 1.78-.28 6.56-.35 2.56-.38 6.37-.08 10.08-.98 17.07-.24 1.91.25 4.08m-157.12 48.8c.89-3.86 1.67-10.96 3.51-14.67q3.4-6.83 11.62-8.18c5.2-.86 12.24-.76 15.47 4.02q1.53 2.26 1.06 7.61-.39 4.48-1.02 7.81-.9 4.82-2 9.56c-.9 3.85-1.68 10.96-3.52 14.67q-3.4 6.82-11.62 8.17c-5.2.86-12.24.76-15.47-4.01q-1.53-2.26-1.06-7.62.39-4.47 1.02-7.81.9-4.82 2.01-9.55m21.26-9.94a4 4 0 0 0-3.17-4.66l-.49-.1a4 4 0 0 0-4.65 3.17l-5.35 28.01a4 4 0 0 0 3.17 4.66l.49.1a4 4 0 0 0 4.65-3.17zm-48.15 38.56-8.77.16a.9.9 0 0 1-.89-1.05l9.28-49.25a.9.9 0 0 1 .85-.72l8.77-.16a.9.9 0 0 1 .89 1.05l-9.28 49.25a.9.9 0 0 1-.85.72m82.79-7.75-1.11 6.83a1.2 1.2 0 0 1-1.22 1.03H197.9a1.23 1.23 0 0 1-1.21-1.46l9.14-48.54a1.2 1.2 0 0 1 1.21-1h7.93a1.23 1.23 0 0 1 1.21 1.46l-7.31 38.79a1.23 1.23 0 0 0 1.21 1.46h9.58a1.23 1.23 0 0 1 1.22 1.43m103.75-43.13a.7.7 0 0 1 .7.81q-.3 2.06-4.94 26.98-1.59 8.58-3.66 14.81c-2.73 8.23-14.05 10.81-21.41 8.29-6.15-2.1-6.68-6.66-5.61-12.54q2.4-13.13 6.78-37.56a.98.97-85.1 0 1 .96-.81h8.53a.97.97 0 0 1 .95 1.15l-7.19 38.14a3.23 3.23 5.3 0 0 3.17 3.82h.32a4.65 4.65 0 0 0 4.57-3.79l7.24-38.41a1.09 1.08 5.1 0 1 1.07-.89zm-74.54 42.49-1.48 7.83a.85.85 0 0 1-.83.69h-21.83a.85.85 0 0 1-.84-1.01l9.28-49.27a.85.85 0 0 1 .83-.69h21.43a.85.85 0 0 1 .84 1.01l-1.39 7.37a.85.85 0 0 1-.83.69H243.9a.85.85 0 0 0-.83.69l-1.82 9.66a.85.85 0 0 0 .84 1.01h8.64a.85.85 0 0 1 .84 1.01l-1.39 7.35a.85.85 0 0 1-.83.69h-8.97a.85.85 0 0 0-.84.69l-1.93 10.26a.85.85 0 0 0 .83 1.01h10.81a.85.85 0 0 1 .84 1.01m38.64-42.47a.82.82 0 0 1 .81.98c-.72 3.78-1.75 7.35-2.44 11.38q-2.36 13.87-5.53 29.09c-1.87 8.95-9.6 9.9-17.32 9.55q-7.91-.35-9.07-8.14-.37-2.48.99-9.03a1.7 1.68 5.9 0 1 1.66-1.34h6.84a1.16 1.16 0 0 1 1.14 1.35c-.43 2.62-2.06 10.3 3.3 8.95q2.6-.65 3.18-4.17 2.66-16.21 6.84-37.2a1.76 1.76 0 0 1 1.73-1.42z"/></svg>