<svg xmlns="http://www.w3.org/2000/svg" version="1.1" viewBox="0 0 471 471"><path fill="#ffd600" d="M279.36 47.8a19.5 19.5 0 0 1-19.51 19.51 19.5 19.5 0 0 1-19.51-19.51 19.5 19.5 0 0 1 19.51-19.51 19.5 19.5 0 0 1 19.51 19.51m-10.95.01a8.57 8.57 0 0 0-8.57-8.57 8.57 8.57 0 0 0-8.57 8.57 8.57 8.57 0 0 0 8.57 8.57 8.57 8.57 0 0 0 8.57-8.57m-16.09 36.18a.15.15 0 0 0 .03-.28q-26.13-12.46-34.55-16.26c-4.48-2.02-2.2-8.77 1.15-10.56q2.57-1.37 6.1.36 30.79 15.11 46.68 22.27 1.06.47 2.5 1.59a2.8 2.8 0 0 1 .92 3.11q-2.31 6.57-5.53 13-1.74 3.46-5.58 2.49-30.05-7.61-51.08-11.84c-4.54-.91-8.36-2.97-7.19-8.37.97-4.49 4.37-4.53 8.5-3.65 12.39 2.66 24.54 5.93 37.23 8.18q.36.06.82-.04m44.81 49.67a.95.95 0 0 1-1.17.64l-16.81-4.94a1.5 1.5 0 0 1-1.02-1.81q1.3-4.85 2.47-8.44 6.92-21.21 7.12-22.11.47-2.07 4.26-2.53a1.07 1.06 6.2 0 0 .88-.7c1.39-3.83 2.71-9.9 8.39-8.04 5.85 1.93 4.04 7.69 2.64 12a1.23 1.22-61.9 0 0 .41 1.35c2.17 1.72 3.06 2.98 2.01 6.17q-7.08 21.34-9.18 28.41"/><rect fill="#ffd600" x="-10.79" y="-2.86" transform="translate(231.39,100.68) rotate(13.4)" width="21.58" height="5.72" rx="1.43"/><rect fill="#ffd600" x="-33.07" y="-6.02" transform="translate(225.10,110.15) rotate(12.9)" width="66.14" height="12.04" rx="5.35"/><path fill="#ffd600" d="m208.71 123.29 1.23-3.85a.9.9 0 0 1 1.06-.6l18.83 4.51a.9.9 0 0 1 .65 1.15l-1.23 3.85a.9.9 0 0 1-1.06.6l-18.83-4.51a.9.9 0 0 1-.65-1.15"/><rect fill="#ffd600" x="-31.68" y="-6.01" transform="translate(212.66,134.53) rotate(12.6)" width="63.36" height="12.02" rx="5.75"/><path fill="#ffd600" d="M260.46 184.13c-1.94-1.14-3.79-2.69-2.89-5.34q6.76-20.07 14.64-45.14a2.2 2.2-83.9 0 1 1.91-1.54q1.77-.14 4.23.55 4.77 1.35 17.71 5.56 2.85.93 1.91 3.77-10.88 33.19-14.26 43.7-1.54 4.78-5.8 3.25a.52.52 0 0 0-.7.48q0 .17.81.82l.37 1.1q3.09 9.58-4.4 15.83c-8.62 7.21-20.23.06-20.31-10.47q-.05-7.67 6.79-11.89a.4.4 0 0 0-.01-.68m10.56 12.51a4.8 4.8 0 0 0-4.79-4.79 4.8 4.8 0 0 0-4.79 4.79 4.8 4.8 0 0 0 4.79 4.79 4.8 4.8 0 0 0 4.79-4.79"/><rect fill="#ffd600" x="-30.11" y="-6.19" transform="translate(197.58,159.94) rotate(27.3)" width="60.22" height="12.38" rx="4.83"/><path fill="#ffd600" d="m216.88 149.13-.92 2.46a1.7 1.7 0 0 1-1.96 1.04l-17.12-4.11a1.67 1.67 0 0 1-1.18-2.21l.92-2.47a1.7 1.7 0 0 1 1.96-1.03l17.12 4.11a1.67 1.67 0 0 1 1.18 2.21m-17.62 23.54-2.4 6.43a2.14 2.12 47.4 0 0-.05 1.32q.81 2.83 1.24 4.5c2.39 9.28-1.67 17.9-9.75 22.27-13.5 7.3-28.8-2.41-29.28-17.37-.42-12.82 9.72-20.46 22.1-20.18a.9.9 0 0 0 .78-.44l2.78-4.81a.84.84 0 0 1 1.15-.31l13.05 7.53a.9.9 0 0 1 .38 1.06m-11.35 16.85a8.87 8.87 0 0 0-8.87-8.87 8.87 8.87 0 0 0-8.87 8.87 8.87 8.87 0 0 0 8.87 8.87 8.87 8.87 0 0 0 8.87-8.87m-69.4 80.19a1 1 0 0 1 .98 1.22c-.73 3.31-2.93 12.19 2.26 12.38q2.99.11 4.79-.73a2.04 2.02 1.2 0 0 .95-.9q2.88-5.53 1.75-11.63-.42-2.24-3.01-4.18-7.65-5.74-9.53-7.31c-6.32-5.26-5.1-12.65-3.64-20.02 1.54-7.78 7.25-13.52 15.11-14.44 8.51-.99 18.97.88 19.15 11.85q.08 5.11-1.51 10.2a1.01 1-81.4 0 1-.96.71h-9.87a1 1 0 0 1-.98-1.09c.5-4.66 2.45-11.16-3.54-10.8q-3.16.2-4.64 3.43-3.04 6.67 1.12 10.82c4.87 4.85 15.12 9.07 15.58 17.35.44 7.79-1.06 17.36-6.67 22.72-4.8 4.58-12.64 5.44-19.18 4.66q-9.73-1.16-10.98-10.43c-.45-3.37.66-9.57 1.69-12.9a1.31 1.3-81.1 0 1 1.24-.91zm232.95-22.82a.87.87 0 0 1-.85-1.04q.94-4.66.76-7.7c-.2-3.2-3.92-3.74-6.38-2.65-3.55 1.57-4.59 7.57-3.88 10.76q.33 1.49 3.41 4.24c2.83 2.53 9.54 6.44 12.8 11.12q1.54 2.2 1.73 5.84c.42 7.75-2.07 19.75-9.6 23.73q-8.5 4.49-17.76 2.64c-6.28-1.25-10.1-5.03-9.93-11.58q.18-7.15 1.17-11.63a1.1 1.1 0 0 1 1.1-.89h10.39a.9.89-86.1 0 1 .88 1.02c-.49 3.61-2.53 12.22 2.07 12.63 6.42.57 7.3-2.85 8.45-8.17q1.18-5.51-2.96-8.82-5.92-4.73-8.52-6.7-5.98-4.52-5.93-11.66c.08-10.68 4.05-22.32 16.49-23.88 7.94-.99 16.9.65 19.19 9.29.86 3.26-.27 8.58-1.27 12a2 2-81.7 0 1-1.94 1.45zm-204.19 46.04a.5.5 0 0 1-.5-.6q5.9-31.55 11.35-65.61.28-1.78 1.53-2.07.19-.05 2.69-.06 13.99-.04 26.31.03a1.22 1.22 0 0 1 1.2 1.41q-.58 3.66-1.21 7.87-.33 2.17-2.61 2.15-7.35-.08-15.53-.2a.88.87-84.6 0 0-.87.73l-2.71 15.61a.96.95-85.2 0 0 .94 1.12h13.65a1.27 1.27 0 0 1 1.25 1.49l-1.49 8.6a1.44 1.44 0 0 1-1.42 1.2h-14.47a.7.7 0 0 0-.7.58l-2.75 15.86a1.12 1.12 0 0 0 1.1 1.31h15.55a1.18 1.17-85 0 1 1.15 1.38l-1.48 8.51a.8.8 0 0 1-.81.69zm130.98-25.71 12.09-41.14a2 2 0 0 1 1.94-1.46h9.39a.88.87-81.2 0 1 .83 1.14l-21.2 66.67a.78.77 8.7 0 1-.74.54H267.6a.7.7 0 0 1-.69-.73q.83-15.24 1.42-29.49c.13-3.19 1.36-8.21-.06-11.95a.15.15 43.9 0 0-.27 0l-13.23 41.59a.8.8 0 0 1-.78.57h-12.62a1.05 1.05 0 0 1-1.05-1.08l1.86-65.84a1.5 1.5 0 0 1 1.49-1.45h10.92a.87.87 0 0 1 .87.93l-2.99 42.34a.41.41 0 0 0 .75.25q.29-.43 1.08-2.8 2.97-8.89 13.23-38.94a2.5 2.5 0 0 1 2.4-1.71h8.36a.95.94.9 0 1 .95.97q-.63 21.34-1.56 39.62-.04.86.21 1.96a.19.19 0 0 0 .36.01m32.69-42.61h11.16a.9.9 0 0 1 .88 1.04l-11.56 66.68a.9.9 0 0 1-.88.74h-11.16a.9.9 0 0 1-.88-1.04l11.56-66.68a.9.9 0 0 1 .88-.74m-86.33 68.36h-12.03a1.12 1.1-3.2 0 1-1.11-.98l-2.72-24.11a1.74 1.74 0 0 0-1.73-1.55h-2.33a.6.6 0 0 0-.58.48l-4.44 25.64a.6.6 0 0 1-.59.49h-11.32a.95.95 0 0 1-.94-1.12l11.33-65.33a2.2 2.2 0 0 1 2.16-1.82q12.93-.04 18.94.04c8.48.11 14.6 4.75 13.13 14.1q-1.29 8.21-3.54 16.81-1.54 5.87-7.42 8.9a.94.94 0 0 0-.5.99l4.2 26.87a.52.51-4.3 0 1-.51.59m-17.83-37.14c2.02.47 4.51.21 7-.01 4.44-.38 5.81-13.31 6.02-17.13a2.73 2.73 2.4 0 0-2.65-2.87l-6.84-.2a1 .99 5.3 0 0-1.01.83l-3.19 18.37a.9.9 0 0 0 .67 1.01m17.12 80.72.15 7.99a1.82 1.8-88.4 0 0 1.66 1.77c5.31.45 6.23-5.4 5.75-9.29a4.99 4.96 14.3 0 0-2.05-3.43c-2.26-1.62-7.97-5.53-8.98-8.57-1.32-3.98-.71-9.42.45-12.99q2.69-8.23 12.09-8.52 1.28-.04 4.48.21c7.8.62 7.73 8.5 6.71 14.06a1.85 1.85 0 0 1-1.78 1.52l-6.12.12a1.16 1.15-83.8 0 1-1.14-1.43c.32-1.37.86-5.8-1.1-6.72a3.24 3.09 31.2 0 0-3.87.85c-1.98 2.53-2.69 7.91.41 10.14q5.04 3.63 6.85 5.07c4.42 3.52 4.17 8.15 3.01 13.66-1.14 5.44-2.41 10.03-7.73 11.69q-7.24 2.26-14.12-.18c-5.11-1.81-3.56-12.04-2.49-15.75a.9.9 0 0 1 .83-.64l6.4-.13a.6.6 0 0 1 .59.57M80.85 311.82l-10.23.2a1.39 1.38 4.5 0 1-1.39-1.62l.86-4.95a1.98 1.97 4.8 0 1 1.95-1.64h20.64a.6.6 0 0 1 .58.61c-.19 4.26-.99 6.8-3.37 10.91Q76.35 338.77 74.7 341.7q-1.21 2.15-1.78 3.43a.3.3 0 0 0 .27.41l12.24-.24a1.3 1.3 0 0 1 1.33 1.4l-.37 5.11a1.65 1.64 1.8 0 1-1.65 1.53H62.3a.7.7 0 0 1-.7-.78 24 24 0 0 1 3.18-9.82q9.85-17.15 15-26.49 1.14-2.06 1.6-3.74a.55.54-83.1 0 0-.53-.69m27.21-8.01h10.6a.86.86 0 0 1 .86.86v47.8a.86.86 0 0 1-.86.86h-6.87a.86.86 0 0 1-.86-.86v-7.54a.86.86 0 0 0-.86-.86h-8.1a.9.9 0 0 0-.81.56l-3.02 8.09a.9.9 0 0 1-.78.56l-7.16.14a.86.86 0 0 1-.83-1.16l17.88-47.89a.9.9 0 0 1 .81-.56m2.64 13.5c-2.22 1.86-4.18 10.51-6.38 18.09a.68.68 0 0 0 .67.87l4.94-.1a1 1 0 0 0 .96-.95l.49-17.58a.41.41 0 0 0-.68-.33m43.51 17.89a.23.23 0 0 0 .45.07l8.88-30.24a1.65 1.65 0 0 1 1.58-1.18h6.47a.7.7 0 0 1 .66.9L157 352.71a.84.84 0 0 1-.8.58h-9.5a.64.64 0 0 1-.64-.66c.27-9.6 1.41-18.3.85-27.82a.27.27 0 0 0-.52-.07l-8.82 27.74a1.24 1.23-80.8 0 1-1.17.85h-8.58a.78.77 1.7 0 1-.78-.82q1.18-19.61.99-42.26-.01-.48.84-5.95a.8.78-84.6 0 1 .8-.68l7.43.21a.75.75 0 0 1 .72.77q-.37 11.17-1.98 24.36-.21 1.7.06 4.74a.21.21 0 0 0 .37.11q.87-1.13 1.45-2.82 2.48-7.34 8.73-26.55a.88.86-80.6 0 1 .82-.6h7.08a.73.72-89.2 0 1 .72.75zm23.38 18.14h-7.76a.88.88 0 0 1-.87-1.03l8.28-47.74a.9.9 0 0 1 .87-.73h7.76a.88.88 0 0 1 .87 1.03l-8.28 47.74a.9.9 0 0 1-.87.73m31.85-21.13h-9.77a1.1 1.1 0 0 0-1.06.92l-1.6 11.05a1.07 1.07 0 0 0 1.06 1.22h9.96a1.07 1.07 0 0 1 1.06 1.22l-.84 5.78a1.1 1.1 0 0 1-1.06.92h-19.88a1.07 1.07 0 0 1-1.05-1.25l8.22-47.37a1.1 1.1 0 0 1 1.05-.89h20.08a1.07 1.07 0 0 1 1.05 1.25l-1.03 5.95a1.1 1.1 0 0 1-1.05.89h-11a1.1 1.1 0 0 0-1.05.89l-1.76 10.16a1.07 1.07 0 0 0 1.05 1.25h8.64a1.07 1.07 0 0 1 1.05 1.25l-1.02 5.87a1.1 1.1 0 0 1-1.05.89m54.26-19.73a.55.54-82.9 0 0-.53-.7l-10.26.16a1.4 1.4 0 0 1-1.39-1.64l.89-4.96a1.99 1.98 5.1 0 1 1.96-1.63l20.7.1a.6.6 0 0 1 .58.61c-.21 4.27-1.03 6.82-3.43 10.93q-13.69 23.44-15.36 26.37-1.22 2.15-1.8 3.43a.3.29-78.6 0 0 .27.41l12.27-.18a1.3 1.3 0 0 1 1.33 1.41l-.4 5.13a1.66 1.64 2.1 0 1-1.66 1.52l-22.5-.1a.71.7 3.5 0 1-.7-.79 24 24 0 0 1 3.24-9.83q9.96-17.16 15.16-26.5 1.16-2.06 1.63-3.74m34.67 19.77h-10.02a.8.8 0 0 0-.82.69l-2 11.53a.83.83 0 0 0 .82.97h11.44a.83.83 0 0 1 .82.95l-.9 6.22a.83.83 0 0 1-.82.71h-21.46a.83.83 0 0 1-.82-.97l8.3-47.86a.8.8 0 0 1 .82-.69h21.19a.83.83 0 0 1 .82.97l-1.12 6.49a.8.8 0 0 1-.82.69h-12.29a.83.83 0 0 0-.82.71l-1.54 10.62a.83.83 0 0 0 .82.95h9.32a.83.83 0 0 1 .82.95l-.92 6.36a.83.83 0 0 1-.82.71m29.93-.63 4.55-26.21a2.07 2.05 4.8 0 1 2.04-1.71h4.78a1.72 1.72 0 0 1 1.69 2.01l-8.16 47.06a.7.7 0 0 1-.67.56h-8.77a1.03 1.03 0 0 1-1.03-.97q-.78-11.83-2.91-23.97-.49-2.75-1.51-5.28a.43.43 0 0 0-.83.1l-4.24 29.27a1.03 1.03 0 0 1-1.02.88h-7.24a.65.65 0 0 1-.64-.76l8.32-47.94a1 .99-85.7 0 1 .95-.83l8.19-.16a.8.8 0 0 1 .79.56q.7 2.12.96 3.99 1.74 12.43 3.08 19.17.58 2.94 1.23 4.29a.23.23 0 0 0 .44-.06m21.78-27.79h7.74a.94.94 0 0 1 .93 1.1l-8.27 47.66a.94.94 0 0 1-.93.78h-7.73a.94.94 0 0 1-.93-1.1l8.26-47.66a.94.94 0 0 1 .93-.78m13.86 49.59-6.6-.19a.76.76 0 0 1-.69-1.03q12.77-33.63 17.29-46.02.82-2.27 2.35-2.34 4.57-.23 9.73-.12a.9.9 0 0 1 .9.9l.94 47.72a1.17 1.16-89.5 0 1-1.2 1.19l-7.44-.21a1.15 1.14 1.7 0 1-1.12-1.18l.19-6.94a1 1 0 0 0-.95-1.01l-7.47-.21a1.65 1.64-79 0 0-1.58 1.07l-2.71 7.26a1.72 1.7-78.9 0 1-1.64 1.11m14.53-37.38-2.17 4.43a4.76 3.2-36.2 0 0-.22.54l-4.59 14.7a.37.37 0 0 0 .35.48l5.83.17a.43.42 1.3 0 0 .44-.41l.56-19.86a.11.11 0 0 0-.2-.05"/></svg>