<svg xmlns="http://www.w3.org/2000/svg" version="1.1" viewBox="0 0 474 472"><path fill="#ffde00" d="M283.5 179.9q-.23-1.27-.15-2.1.34-3.36 3.36-19.62 1.19-6.44 1.29-10.29c.13-5.27.5-12.31-1.11-18.52q-1.77-6.87-2.14-7.97-5.56-16.44-17.02-27.19-13.79-12.93-21.07-19.38-2.94-2.6-2.42-5.81.04-.26 1.93-19.29c.37-3.63 1.26-7.8 3.64-10.67 8.04-9.7 16.99-5.82 27.34-.22q13.57 7.34 18.57 10.01 7.82 4.18 15.53 12.18c5.77 5.99 9.38 9.04 7.95 17.73q-.63 3.79 1.24 8.01 6.04 13.62 11.81 31.42c1.23 3.8 5.11 5.61 7.04 7.46 3.55 3.42 3.97 9.57 4.34 14.32q.16 2.08-.31 7.49c-.37 4.28-.39 9.45-1.78 13.84q-2.16 6.79-7.33 20.93-3.18 8.7-7.89 14.86c-3.42 4.48-7.93 4.82-13.49 4.65-4.26-.12-7.45-.9-10.51-3.82q-8.43-8.05-18.25-17a1.86 1.8 16.8 0 1-.57-1.02"/><path fill="#ffde00" d="M254.76 91.76a.34.34 0 0 1-.32.58c-6.54-1.57-15.94-6.32-23.21-6.91q-10.88-.89-18.45.9c-8.89 2.12-19.54 7.19-26.47 14.19-24.95 25.19-24.09 67.09 5.97 88.33 4.6 3.25 11.99 6.72 17.27 8.33 4.27 1.31 8.47 1.59 12.99 1.86 20.8 1.21 38.82-10.05 49.74-27.2q.74-1.16 2.6-5.89 1.38-3.51 3.76-7.56a.3.3 0 0 1 .56.1q.56 3.45-.32 6.94-1.7 6.69-2.22 12.06c-.46 4.63 1.16 7.35 4.88 10.51q4.39 3.75 13.72 12.54a1.04 1.02-51.4 0 1 .14 1.34q-2.3 3.35-6.21 7.33c-14.86 15.11-35.96 27.07-57.44 27.94-11.44.46-23.26.75-33.76-2.69q-23.98-7.86-41.1-25.82-10.93-11.47-17.18-25.37a102 102 0 0 1-8.62-31.03q-.36-3.13-.23-13.54.08-6.78 1.4-13.45c6.32-32.06 27.39-59.36 57.63-72.33q9.32-4 17.13-5.14 15.67-2.29 31.61-.2a.66.65 89.4 0 1 .57.56q.26 1.91.06 4.11-.86 9.06-2.03 17.55a4.28 4.26-47.1 0 0 .05 1.45q1.17 5.37 5.64 9.36 5.83 5.19 11.84 11.15m-53.07-29.71a4.29 4.05-94.9 0 0-3.67 4.62 4.29 4.05-94.9 0 0 4.4 3.92 4.29 4.05-94.9 0 0 3.68-4.62 4.29 4.05-94.9 0 0-4.4-3.92m-11.1 22.41a4.13 4.13 0 0 0-4.13-4.13 4.13 4.13 0 0 0-4.13 4.13 4.13 4.13 0 0 0 4.13 4.13 4.13 4.13 0 0 0 4.13-4.13m-25.44 12.53a4.34 4.34 0 0 0-4.34-4.34 4.34 4.34 0 0 0-4.34 4.34 4.34 4.34 0 0 0 4.34 4.34 4.34 4.34 0 0 0 4.34-4.34m-6.44 21.96a4.31 4.05-93.6 0 0-3.77 4.55 4.31 4.05-93.6 0 0 4.31 4.05 4.31 4.05-93.6 0 0 3.77-4.55 4.31 4.05-93.6 0 0-4.31-4.05m-8.48 30.65a4.16 4.16 0 0 0-4.16-4.16 4.16 4.16 0 0 0-4.16 4.16 4.16 4.16 0 0 0 4.16 4.16 4.16 4.16 0 0 0 4.16-4.16m14.9 19.81a4.1 4.1 0 0 0-4.09-4.09 4.1 4.1 0 0 0-4.09 4.09 4.1 4.1 0 0 0 4.09 4.09 4.1 4.1 0 0 0 4.09-4.09m4.03 23.67a4.3 3.97-74.9 0 0-4.95 3.12 4.3 3.97-74.9 0 0 2.71 5.18 4.3 3.97-74.9 0 0 4.95-3.12 4.3 3.97-74.9 0 0-2.71-5.18m99.97 5.2a4.17 3.89-2.5 0 0-4.34-3.7 4.17 3.89-2.5 0 0-4 4.06 4.17 3.89-2.5 0 0 4.34 3.7 4.17 3.89-2.5 0 0 4-4.06m-72.81 6.27a4.1 4.1 0 0 0-4.08-4.08 4.1 4.1 0 0 0-4.08 4.08 4.1 4.1 0 0 0 4.08 4.08 4.1 4.1 0 0 0 4.08-4.08m44.38 7.87a4.1 4.1 0 0 0-4.08-4.08 4.1 4.1 0 0 0-4.08 4.08 4.1 4.1 0 0 0 4.08 4.08 4.1 4.1 0 0 0 4.08-4.08m-21.92 10.27a4.05 4.05 0 0 0-4.05-4.05 4.05 4.05 0 0 0-4.05 4.05 4.05 4.05 0 0 0 4.05 4.05 4.05 4.05 0 0 0 4.05-4.05"/><path fill="#ffde00" d="M231.23 93.94a48.66 47.37-82.1 0 1 40.23 54.71 48.66 47.37-82.1 0 1-53.6 41.69 48.66 47.37-82.1 0 1-40.24-54.71 48.66 47.37-82.1 0 1 53.6-41.69m-2.36 14.17a4.26 4.26 0 0 0-4.26-4.26 4.26 4.26 0 0 0-4.26 4.26 4.26 4.26 0 0 0 4.26 4.26 4.26 4.26 0 0 0 4.26-4.26m-2.55 14.21a19.76 19.47-84.4 0 0-21.3 17.77 19.76 19.47-84.4 0 0 17.44 21.57 19.76 19.47-84.4 0 0 21.3-17.77 19.76 19.47-84.4 0 0-17.44-21.57m31.35 16.02a4.21 3.89-93.8 0 0-3.6 4.46 4.21 3.89-93.8 0 0 4.16 3.94 4.21 3.89-93.8 0 0 3.6-4.46 4.21 3.89-93.8 0 0-4.16-3.94m-62.61 5.2a4.25 4.25 0 0 0-4.25-4.25 4.25 4.25 0 0 0-4.25 4.25 4.25 4.25 0 0 0 4.25 4.25 4.25 4.25 0 0 0 4.25-4.25m34.22 33.23a4.4 4.4 0 0 0-4.38-4.38 4.4 4.4 0 0 0-4.38 4.38 4.4 4.4 0 0 0 4.38 4.38 4.4 4.4 0 0 0 4.38-4.38M93.79 279.87a.23.23 0 0 0-.45-.01l-5.99 39.02a1.2 1.2 0 0 1-1.18 1.02l-10.18.13a.68.68 0 0 1-.68-.78l9.28-64.37a.72.71 3.2 0 1 .7-.62l13.14-.17a1.3 1.3 0 0 1 1.32 1.11q3.44 20.52 4.9 37.77a.37.37 0 0 0 .73.07q.94-3.3 1.2-5.67 1.8-15.94 4.25-31.88a1.55 1.54-85.8 0 1 1.51-1.31l9.38-.12a1.18 1.18 0 0 1 1.18 1.36l-9.78 63.71a.9.9 0 0 1-.85.74l-11.64.14a1.4 1.4 0 0 1-1.43-1.23zm73.2 40.18a.85.85 0 0 1-.86-.82c-.11-2.9.89-5.93 1.18-9.2q.94-10.36 3.11-22.5c2.22-12.41 3.15-21.15 4.84-32.2a1.4 1.39-85 0 1 1.4-1.18q9.6.12 15.15.07 7.56-.08 11.13 1.84c8.65 4.65 5.52 14.83 4 22.85q-1.2 6.34-2.91 8.77c-4.55 6.46-13.2 6.54-20.75 6.2a.97.96 5.2 0 0-1 .83l-3.53 24.48a.85.85 0 0 1-.83.72zm19.77-56.24-2.84 19.49a.3.3 0 0 0 .25.34l4.6.67a4.92 4.67-81.7 0 0 5.33-4.19l1.51-10.35a4.92 4.67-81.7 0 0-3.91-5.54l-4.6-.67a.3.3 0 0 0-.34.25m124.6 29.98 10.54-38.67a1.2 1.2 0 0 1 1.15-.89l10.12-.13a.78.77 89.6 0 1 .78.78q-.2 34.48-.12 36.99c.07 2.38-.61 4.23-.77 6.56a.2.2 0 0 0 .18.22l.11.02a.3.3 0 0 0 .36-.21c.35-1 .43-3.09.99-4.76q3.64-10.84 4.2-13.56 2.45-11.8 6.02-24.67a1.69 1.68-82.5 0 1 1.61-1.24l10.83-.14a.86.86 0 0 1 .83 1.1l-18.79 63.83a1.19 1.18-82 0 1-1.12.85l-11.96.15a1.25 1.25 0 0 1-1.27-1.25l.03-37.84a.28.27-73.9 0 0-.12-.23q-.49-.33-.7.3-4.95 14.93-8.03 27.79c-.9 3.77-1.78 6.08-3.03 10.16a1.25 1.24-81.6 0 1-1.17.88l-11.92.15a.95.95 0 0 1-.96-.94l-.81-63.5a1.34 1.34 0 0 1 1.32-1.35l10-.12a.92.91-2 0 1 .93.86q.41 6.24-.16 15.32-.43 6.84-.78 18.99-.09 3.07.87 4.67a.46.46 0 0 0 .84-.12m-192.44 25.29 21.12-63.95a1.28 1.27-80.9 0 1 1.19-.87l14.5-.18a.7.7 0 0 1 .7.64c1.04 14.05 1.32 21.54 2.1 29.69.44 4.66.13 9.6.56 14.77q.85 10.21.66 20.06a.64.64 0 0 1-.63.63l-10.98.14a1.3 1.3 0 0 1-1.3-1.27l-.15-11.38a1 1 0 0 0-.99-.97l-9.52.13a1.89 1.88 8.8 0 0-1.78 1.3l-3.63 10.99a1.6 1.6 8.5 0 1-1.52 1.11l-9.62.12a.74.73 8.8 0 1-.71-.96m27.01-50.14-7.9 26.85a.7.7-80.8 0 0 .63.88l7.36.23a.8.8 0 0 0 .85-.82q.08-19.79-.1-25.07-.05-1.52-.4-2.12a.24.24 0 0 0-.44.05m94.2 19.14a.47.47 0 0 0 .19.81q5 1.29 5.64 5.07.29 1.68-.58 8.14-.51 3.78-1.41 8.9a3.81 3.54-42.9 0 0-.04.54l-.02 7.88a.5.5 0 0 1-.49.5l-10.99.14a1.46 1.45-7.7 0 1-1.42-1.08q-.38-1.48.07-4.2c.86-5.2 2.66-13.32 1.98-19.79a2.3 2.3 0 0 0-2.19-2.03l-5.12-.16a1 1 0 0 0-1 .73q-1.18 4.07-1.93 9.52-1.56 11.38-2.24 16.11a.84.84 0 0 1-.82.72l-11.19.14a.6.6 0 0 1-.62-.63c.25-10.41 3.47-23.54 4.54-31.62q2.12-15.93 5.18-32.78a.9.88-84.5 0 1 .87-.73q10.75-.04 15.71.07c3.11.06 6.39.13 9.02 1.25q7.99 3.42 6.65 13.65c-.79 6-1.82 14.55-7.55 17.42q-1.45.73-2.24 1.43m-11.88-3.77 3.56-.49a4.57 4.56 2.7 0 0 3.82-3.47q1.29-5.37 1.89-9.1.51-3.14-.07-5.16a2.15 2.15 0 0 0-2-1.56l-6.44-.2a.74.74 0 0 0-.77.64l-2.44 16.88a2.17 2.17 0 0 0 2.45 2.46m47.9 22.12-9.62.13a1 1 0 0 0-.97.71l-3.95 11.94a1 1 0 0 1-.97.71l-9.78.12a1.04 1.04 0 0 1-1-1.36l21.01-63.6a1 1 0 0 1 .97-.71l14.52-.18a1.04 1.04 0 0 1 1.05.98l3.72 63.61a1.04 1.04 0 0 1-1.03 1.1l-11.7.16a1.04 1.04 0 0 1-1.05-1.03l-.15-11.55a1.04 1.04 0 0 0-1.05-1.03m.28-37-7.47 26.35a.67.67 0 0 0 .63.85l7.2.15a.8.8 0 0 0 .82-.81q-.11-19.36-.34-24.52-.07-1.49-.42-2.07a.24.24 0 0 0-.42.05M377.54 320a.97.97 0 0 1-.97-.96l-.09-11.81a.77.76-.2 0 0-.77-.76l-10.07.01a.9.9 0 0 0-.83.6l-3.91 11.98a1.2 1.2 0 0 1-1.12.82l-10.08.1a.74.74 0 0 1-.7-.97l21.14-63.83a1.5 1.5 0 0 1 1.44-1.04h14.21a1.15 1.13 88.1 0 1 1.14 1.08l3.49 64.11a.65.65 0 0 1-.65.69zm-2.03-49.57-7.65 25.45a.65.65 0 0 0 .6.84l6.98.25a.8.8 0 0 0 .82-.77q.18-18.79.04-23.8-.04-1.45-.37-2.02a.23.23 0 0 0-.42.05m-203.84 59.72a.8.8 0 0 1 .79.9q-2.67 19.01-5.71 35.95c-1.84 10.3-8.2 13.21-17.93 12.66-10.31-.59-10.32-8.3-8.87-17.08q1.4-8.52 3.83-27.26c.15-1.13.7-2.97 1.01-4.05a1.39 1.38 7.5 0 1 1.32-1.01l7.54-.1a.97.97 0 0 1 .97 1.12q-2.04 12.88-3.55 22.72-.9 5.79-1.37 14.96a2.62 2.61 83.3 0 0 3.34 2.64l.37-.1a4.72 4.7 87.1 0 0 3.51-3.9l5.24-36.33a1.2 1.2 0 0 1 1.15-1.01zm14.52 17.42c3.88-4.32 6.73-10.18 9.91-15.66a3.1 3.1 0 0 1 2.62-1.53l6.33-.08a.94.94 0 0 1 .8 1.45q-2.2 3.42-10.42 17.34-.88 1.48-.24 4.44.9 4.12 3.6 16.69.92 4.31 1.25 8.05a.86.85 87.2 0 1-.84.93l-8.15.1a1.44 1.43-3.5 0 1-1.45-1.28q-1.21-11.24-1.87-15.85-.23-1.65-1.34-3.05a.52.52 0 0 0-.8-.02q-2.31 2.57-2.57 4.42l-2.11 14.58a1.35 1.34-86.3 0 1-1.32 1.16l-6.78.09a1 .99-86.5 0 1-1-1.14l6.7-46.46a1.7 1.7 0 0 1 1.63-1.44l6.22-.07a1.42 1.42 0 0 1 1.43 1.62l-2.22 15.42a.36.36 0 0 0 .62.29m34.83-.97a.6.6 0 0 0 .82.64l4.77-1.92a.71.7 78.3 0 1 .97.64l.06 4.6a2.2 2.2 78.8 0 1-1.37 2.06l-4.88 1.97a2.3 2.3 0 0 0-1.4 1.78l-1.94 13.49a1.1 1.1 0 0 0 1.09 1.25l8.43-.11a1.05 1.04 3.8 0 1 1.05 1.19l-.85 5.91a1.32 1.31 3.6 0 1-1.28 1.12l-18.69.23a.93.93 0 0 1-.94-1.07l2.48-17.22a.56.56 0 0 0-.76-.6l-1.49.6a1.03 1.03 0 0 1-1.42-.94l-.03-2.24a1.2 1.2 0 0 1 .76-1.15q2.33-.95 3.69-2.65a1.3 1.19-23.2 0 0 .27-.6l3.39-22.07a1.4 1.4 0 0 1 1.35-1.17l7.01-.09a1.09 1.08-86.4 0 1 1.09 1.24zm41.32 31.39a1.34 1.34 0 0 1-1.32 1.34l-7.38.09a1.19 1.18 89 0 1-1.2-1.17l-.11-8.58a.8.8 0 0 0-.8-.78l-6.21.08a1.1 1.1 0 0 0-1.03.75l-2.77 8.39a1.68 1.66 8.6 0 1-1.56 1.14l-6.07.08a1.2 1.2 0 0 1-1.15-1.57l15.21-46.05a1.94 1.92 8.7 0 1 1.81-1.32l10.3-.13a1.06 1.06 0 0 1 1.07 1.02c.86 21.04 1.26 30.54 1.21 46.71m-9.82-16.37a.4.4 0 0 0 .41-.43l-.22-17.71a.42.42 0 0 0-.82-.11l-5.24 17.78a.42.42 0 0 0 .41.54zm15.78 17.44a.53.52-83.3 0 1-.47-.6l7.2-46.9a1.45 1.45 0 0 1 1.41-1.22q10.84-.13 14.56-.03c8.54.22 9.46 7.36 8.57 14.6q-.56 4.48-3.02 19.89-.71 4.45-2.79 8.43c-2.44 4.67-8.57 5.85-13.98 6.05q-6.49.25-11.48-.22m10.34-9.54a1.43 1.42-85.9 0 0 1.48 1.71l3.2-.19a2.9 2.9 0 0 0 2.63-2.22q3.31-14.65 4.36-28.42a2.03 2.03 0 0 0-2.15-2.18l-3.07.18a2.1 2.1 0 0 0-1.96 1.88q-1.47 14.19-4.49 29.24m55.66-38.76q-1.65 14.22-4.1 30.22c-1.18 7.7-2.9 16.94-11.39 18.32-5.52.91-14.02 1.15-16.35-5.3-2.35-6.51.76-14.24 1.67-20.9q1.18-8.59 3.16-20.98a2.29 2.28-85.7 0 1 2.23-1.92l5.75-.08a1.64 1.64 0 0 1 1.64 1.89l-5.5 35.87a3.35 3.34 4 0 0 3.35 3.85h.25a4.32 4.31 4 0 0 4.21-3.65l5.7-37.17a.76.76 0 0 1 .74-.64l8.1-.1a.54.53-87.6 0 1 .54.59m-94 91.93a2.06 2.06 0 0 1 2.33-1.7l5.26.75a1.82 1.81 8.8 0 1 1.53 2.08q-.7 4.41-2.69 8.16c-2.56 4.83-6.32 6.21-11.64 6.63q-4.46.36-8.43-2c-3.97-2.35-3.94-7.66-3.41-12.1q.87-7.32 3.38-21.13c1.07-5.87 3.2-12.06 9.61-13.38 3.51-.72 11.79-.85 14.45 2.23 3.23 3.73 2.14 8.56 1.05 13.59a1.94 1.94 0 0 1-1.87 1.52l-5.51.07a1.26 1.26 0 0 1-1.26-1.44l.78-5.42a2.36 2.36 0 0 0-2.36-2.69l-1.95.03a3.2 3.2 0 0 0-3.14 2.66q-2.2 12.56-3.72 23.2-.31 2.15-.19 4.57a2.2 2.2-80.5 0 0 1.37 1.92c4.81 1.91 5.79-3.77 6.41-7.55m29.7-32.88c7.88-.42 14.23.79 13.22 10.78q-1.04 10.35-2.56 19.56c-1.28 7.7-3.35 16.56-12.48 18.17q-7.19 1.28-11.51-2.26-4.32-3.52-3.27-10.06l4-25.06q2-10.56 12.6-11.13m4.61 12.05a3.25 3.25 0 0 0-2.68-3.73l-.97-.16a3.25 3.25 0 0 0-3.73 2.68l-4.26 26.01a3.25 3.25 0 0 0 2.68 3.73l.97.16a3.25 3.25 0 0 0 3.73-2.68zm98.74 17.53-1.68.02a1.23 1.23 0 0 1-1.23-1.4l.63-4.35a1.81 1.8-86.3 0 1 1.76-1.55l10-.12a1.22 1.22 0 0 1 1.22 1.4l-3.36 23.3a1.62 1.61 3.5 0 1-1.58 1.39l-3.95.05a.62.52-28.2 0 1-.24-.05q-.85-.38-1.11-2.01a.67.66 69.3 0 0-1.01-.46c-8.16 5.25-18.24 4.16-17.08-8.12q1.37-14.59 4.78-28.76c.99-4.12 4.17-8.31 9.03-8.7 6.23-.51 16.41-1.25 16.53 7.47q.07 4.92-1.25 8.64a1.76 1.75-80.5 0 1-1.64 1.18l-6.47.08a1.08 1.07-86.3 0 1-1.08-1.23l.83-5.78a2.38 2.38 0 0 0-2.38-2.72l-1.75.02a3.4 3.4-85.2 0 0-3.27 2.77q-2.44 13.39-3.49 27.9a1.76 1.76 0 0 0 1.54 1.88q2.54.32 4.76-.62a2.06 2.04-7.4 0 0 1.23-1.58l1.17-7.61a.91.9 4 0 0-.91-1.04m42.17-3.44c-1.24 10.08-2.24 21.96-15.11 22.57-10.23.49-15.02-2.63-13.17-13.49q1.09-6.37 1.87-12.75c1.24-10.08 2.24-21.96 15.12-22.57 10.22-.49 15.01 2.63 13.16 13.49q-1.09 6.37-1.87 12.75m-8.86-17.54-3.91-.58a1.8 1.8 0 0 0-2.04 1.5l-3.76 25.18a5.41 3.41-81.5 0 0 2.57 5.86l.71.1a5.41 3.41-81.5 0 0 4.17-4.84l3.77-25.18a1.8 1.8 0 0 0-1.51-2.04m-333.41-8.47a1.29 1.28 3.8 0 1 1.29 1.47l-2.38 16.5a1.79 1.78 3.9 0 0 1.79 2.04l3.14-.04a2.68 2.67 3.6 0 0 2.62-2.3l2.35-16.31a1.4 1.4 0 0 1 1.38-1.21l6.99-.08a1.13 1.13 0 0 1 1.14 1.29l-6.56 45.47a1.45 1.45 0 0 1-1.35 1.24l-7.27.42a1.18 1.18 0 0 1-1.24-1.34l2.67-18.5a1.35 1.35 0 0 0-1.35-1.54l-4.5.05a1.7 1.7 0 0 0-1.64 1.45l-2.64 18.25a1.4 1.4-87.7 0 1-1.27 1.18l-7.17.42a.89.88 82.3 0 1-.91-.7q-.39-1.81-.03-3.95 3.54-21.4 6.71-42.53a1.4 1.39 3.8 0 1 1.37-1.19zm17.06 48.23a.9.9 0 0 1-.88-1.14q2.29-8.12 5.74-17.56 3.97-10.88 8.86-27.15.74-2.48 4.02-2.39l7.77.09a.89.88 88.6 0 1 .87.84c.46 8.05 1.29 13.93 1.22 21.63-.07 6.81 1.03 15.09.87 23.97a1.7 1.7 0 0 1-1.7 1.69l-6.53.08a1.45 1.44 89.2 0 1-1.46-1.43l-.11-8.45a.5.5 0 0 0-.52-.51l-6.42.08a1.42 1.4 7.5 0 0-1.33 1.01l-2.33 7.92a1.74 1.72 7.9 0 1-1.65 1.24zm17.9-35.75-5.17 17.23a.9.9 0 0 0 .85 1.14l4.35.04a1 1 0 0 0 1-1.01l-.24-17.29a.41.41-37.3 0 0-.79-.11m27.57 7.98a.12.12 0 0 0-.23 0l-3.77 26.17a1.85 1.85 0 0 1-1.81 1.58l-5.7.07a1.36 1.35 4.1 0 1-1.36-1.56l6.92-45.1a1.7 1.7 0 0 1 1.63-1.42l10.03-.13a.93.92 88.1 0 1 .93.88l1.5 25.54a.17.17 0 0 0 .3.09q1.46-1.84 2.75-5.81 3.22-9.84 6.11-19.22a1.94 1.93-81.7 0 1 1.82-1.36l9.21-.11a1.42 1.42 0 0 1 1.42 1.63l-6.91 45.01a1.77 1.76 4.1 0 1-1.72 1.49l-5.07.07a1.3 1.3 0 0 1-1.31-1.51l3.83-24.97a.27.27 0 0 0-.48-.21q-1.49 1.81-1.71 2.43-3 8.49-6.62 15.99a1.24 1.22-80.6 0 1-.93.68l-4.63.64a1.3 1.3 0 0 1-1.46-1.1zm53.89-20.29 6.95-.09a1.14 1.13-86.3 0 1 1.14 1.3q-2.26 16.3-5.39 34.6c-1.25 7.29-5.47 11.6-12.73 12.57q-5.08.67-8.52-.85c-6.71-2.98-5.97-9.73-4.93-15.94 1.74-10.39 2.57-18.39 4.64-30.4a1.52 1.51 4.3 0 1 1.47-1.26l7.08-.09a1.22 1.22 0 0 1 1.23 1.36q-1.13 9.69-1.66 11.92-2.55 10.67-3.56 23.54a3.4 3.4 4 0 0 3.18 3.65l.2.02a3.67 3.67 0 0 0 3.91-3.09l5.65-36.08a1.4 1.4 0 0 1 1.34-1.16m27.25 39.72a1 1 0 0 1 1.02 1.04l-.19 5.78a1.46 1.45-89.4 0 1-1.44 1.42l-18.12.23a1.47 1.47 0 0 1-1.47-1.69l6.91-45.03a1.78 1.77 4 0 1 1.73-1.5l6.47-.08a1.26 1.26 0 0 1 1.26 1.45q-4.05 25.85-5.1 33.56-.28 2-.13 4.29a.7.7 0 0 0 .69.64zm80.89-10.22a.12.12 0 0 0 .24.04l8.34-28.35a1.8 1.79 7.6 0 1 1.7-1.29l5.68-.07a.7.7 0 0 1 .7.72l-.91 29.14a.27.26-36 0 0 .52.08l8.2-27.86a2.7 2.7 0 0 1 2.55-1.93l6.16-.08a1.26 1.26 0 0 1 1.21 1.65l-15.08 45.65a1.19 1.18-81 0 1-1.11.81l-8.29.11a.8.8 0 0 1-.83-.85l.9-28.72a.28.28 0 0 0-.54-.09l-8.29 28.17a1.97 1.95-82.1 0 1-1.85 1.41l-6.91.08a1.06 1.06 0 0 1-1.08-1.04l-.57-45.61a1.53 1.52 89.2 0 1 1.5-1.55l6.15-.07a1.23 1.23 0 0 1 1.25 1.21zm56.69-21.34-9.02.12a1.16 1.16 0 0 0-1.13.98l-1.44 9.41a1.16 1.16 0 0 0 1.16 1.33l5.51-.07a1.16 1.16 0 0 1 1.17 1.2l-.17 5.32a1.16 1.16 0 0 1-1.14 1.13l-6.78.09a1.16 1.16 0 0 0-1.13.98l-1.5 9.79a1.16 1.16 0 0 0 1.16 1.33l7.45-.09a1.16 1.16 0 0 1 1.17 1.19l-.19 5.94a1.16 1.16 0 0 1-1.14 1.12l-18.26.23a1.16 1.16 0 0 1-1.16-1.33l7.02-45.76a1.16 1.16 0 0 1 1.13-.98l18.17-.23a1.16 1.16 0 0 1 1.16 1.33l-.91 5.99a1.16 1.16 0 0 1-1.13.98"/></svg>